<svg xmlns="http://www.w3.org/2000/svg" viewBox="0 0 2500 2000"><rect width="524.22" height="313.5" x="1161.92" y="193.79" fill="#4d93ff" rx="18.57"/><rect width="524.22" height="54.1" x="1161.92" y="253" fill="#0046b3" transform="rotate(-180 1424.03 280.045)"/><path fill="#d1f5ff" d="M1566.06,447.15h77.08A8.87,8.87,0,0,1,1652,456h0a8.87,8.87,0,0,1-8.87,8.87h-77.08a8.87,8.87,0,0,1-8.87-8.87h0A8.87,8.87,0,0,1,1566.06,447.15Z"/><path fill="#d1f5ff" d="M1447.53,447.15h77.08a8.87,8.87,0,0,1,8.87,8.87h0a8.87,8.87,0,0,1-8.87,8.87h-77.08a8.87,8.87,0,0,1-8.87-8.87h0A8.87,8.87,0,0,1,1447.53,447.15Z"/><path fill="#d1f5ff" d="M1329,447.15h77.08A8.87,8.87,0,0,1,1415,456h0a8.87,8.87,0,0,1-8.87,8.87H1329a8.87,8.87,0,0,1-8.87-8.87h0A8.87,8.87,0,0,1,1329,447.15Z"/><path fill="#d1f5ff" d="M1210.47,447.15h77.08a8.87,8.87,0,0,1,8.87,8.87h0a8.87,8.87,0,0,1-8.87,8.87h-77.08a8.87,8.87,0,0,1-8.87-8.87h0A8.87,8.87,0,0,1,1210.47,447.15Z"/><path fill="#d1f5ff" d="M1646.69,209.7h0a9.79,9.79,0,0,1,9.79,9.79v3.44a9.79,9.79,0,0,1-9.79,9.79h0a9.79,9.79,0,0,1-9.79-9.79v-3.44A9.79,9.79,0,0,1,1646.69,209.7Z"/><path fill="#d1f5ff" d="M1625.6,221.21h0a11.51,11.51,0,0,1-11.51,11.51h-40.8a11.51,11.51,0,0,1-11.51-11.51h0a11.51,11.51,0,0,1,11.51-11.51h40.8A11.52,11.52,0,0,1,1625.6,221.21Z"/><rect width="83.28" height="76.01" x="1562.96" y="336.2" fill="#ffbd73" rx="13.52" transform="rotate(180 1604.6 374.2)"/><path fill="none" stroke="#80b2ff" stroke-miterlimit="10" stroke-width="4.43" d="M292.24,669.64a130.24,130.24,0,0,0-23.3,44.93l13.74,4a117.54,117.54,0,0,0-3.93,45.79L264.57,766a130.64,130.64,0,0,0,15.27,48.24l2.8-1.51,9.74-5.35A116.34,116.34,0,0,0,322,842.45l-8.92,11.2a129.14,129.14,0,0,0,45,23.26l4-13.74a116.54,116.54,0,0,0,45.75,4l1.61,14.18A130.91,130.91,0,0,0,457.67,866l0,0-2-3.64-4.86-8.87a116.05,116.05,0,0,0,35.07-29.58l11.21,8.93a129.65,129.65,0,0,0,23.29-45l-13.74-4a116.1,116.1,0,0,0,3.93-45.7l14.19-1.61a131,131,0,0,0-15.32-48.28l-12.54,6.87A116.05,116.05,0,0,0,467.32,660l8.92-11.21a129.57,129.57,0,0,0-45-23.29l-4,13.74a116.32,116.32,0,0,0-45.71-3.94l-1.6-14.18a130.13,130.13,0,0,0-48.28,15.32l.05.11,4.53,8.25,2.29,4.18a116.18,116.18,0,0,0-35.08,29.58Zm52.93,42.16a63.3,63.3,0,1,1,10,89A63.27,63.27,0,0,1,345.17,711.8Z"/><path fill="none" stroke="#00224d" stroke-miterlimit="10" stroke-width="3.83" d="M1301.66,1321.27a150.26,150.26,0,0,0-26.88,51.84l15.85,4.62a135.41,135.41,0,0,0-4.53,52.83l-16.37,1.86a150.64,150.64,0,0,0,17.63,55.67l3.23-1.75,11.24-6.18a134.23,134.23,0,0,0,34.18,40.52l-10.3,12.93a149.19,149.19,0,0,0,51.88,26.83l4.63-15.85a134.24,134.24,0,0,0,52.79,4.58l1.85,16.37a151.09,151.09,0,0,0,55.71-17.67l0,0-2.26-4.2-5.61-10.24a133.88,133.88,0,0,0,40.47-34.13l12.94,10.3a149.51,149.51,0,0,0,26.87-51.93l-15.86-4.62a134.22,134.22,0,0,0,4.55-52.75l16.36-1.85a151.09,151.09,0,0,0-17.67-55.71l-14.48,7.92a133.74,133.74,0,0,0-34.13-40.47l10.3-12.94a149.42,149.42,0,0,0-51.93-26.87l-4.62,15.86a134.16,134.16,0,0,0-52.74-4.55l-1.86-16.36a150.06,150.06,0,0,0-55.71,17.67l.06.13,5.23,9.52,2.64,4.83a133.86,133.86,0,0,0-40.48,34.13Zm61.08,48.65a73,73,0,1,1,11.59,102.66A73,73,0,0,1,1362.74,1369.92Z"/><path fill="#cce0ff" d="M1149.66,208.73a24.91,24.91,0,0,1,24.91-24.91h92a35.33,35.33,0,0,0,.46-4.51h0a36.24,36.24,0,0,0-33.48-36,52.38,52.38,0,0,0,.55-7.24,53.58,53.58,0,0,0-102.93-20.83,37.38,37.38,0,0,0-62.28,27.93h-7a36.25,36.25,0,0,0-36.14,36.14h0a36.25,36.25,0,0,0,36.14,36.13h87.72Z"/><path fill="#408bff" d="M622.8,380.64c12.82-75.93,129.75-110.2,127.46-60.65l536,3.14c37.13.22,67.23,33.62,67.27,74.64l1.11,1409.72c0,42.5-30.6,77.25-68.43,77.57L739,1889.75c-3.4,7.14-9.75,13.63-19.77,19-62.75,1.34-92.85-29.65-103.84-64.68a84.23,84.23,0,0,1-5.44-30.76C612.17,1795,618.84,398.45,622.8,380.64Z"/><path fill="#fff" d="M725.11,1909l628.09-4c39.2-.25,70.9-35.94,70.83-79.67l-2.36-1449.77c-.07-42.16-31.27-76.41-69.7-76.54l-615.89-2c-38.75-.13-70.43,34.08-70.75,76.43L654.17,1829.9C653.83,1873.83,685.6,1909.27,725.11,1909Z"/><path d="M716.44,1898.47a56.72,56.72,0,0,0,7.94.5l627.89-4.75c33.68-.26,61.21-31.54,61.15-69.71l-2.16-1448.18c-.06-36.81-27.15-66.85-60.19-67l-615.85-2.68c-1,0-1.93,0-2.89.06-15.5.72-30,7.78-40.81,19.86a69.66,69.66,0,0,0-17.35,46.1l-11,1458C662.9,1865.19,685.72,1894.35,716.44,1898.47Z"/><polygon fill="#005cea" points="695.77 380.01 685.18 1832.89 1392.53 1828.65 1390.73 380.01 695.77 380.01"/><rect width="228.63" height="53.79" x="912.75" y="1069.6" fill="#ff9f34" rx="23.77" transform="rotate(-180 1027.06 1096.49)"/><path fill="#fff" d="M806.64,923.72h452.07a27,27,0,0,0,26.9-26.9h0a27,27,0,0,0-26.9-26.9H806.64a27,27,0,0,0-26.89,26.9h0A27,27,0,0,0,806.64,923.72Z"/><rect width="505.86" height="53.79" x="779.75" y="956.55" fill="#fff" rx="23.77" transform="rotate(180 1032.675 983.45)"/><circle cx="1183.77" cy="985.83" r="9.47" fill="#80b2ff"/><circle cx="1151.3" cy="985.83" r="9.47" fill="#80b2ff"/><circle cx="1118.83" cy="985.83" r="9.47" fill="#80b2ff"/><circle cx="1086.37" cy="985.83" r="9.47" fill="#80b2ff"/><circle cx="1053.9" cy="985.83" r="9.47" fill="#80b2ff"/><circle cx="1021.43" cy="985.83" r="9.47" fill="#80b2ff"/><circle cx="988.97" cy="985.83" r="9.47" fill="#80b2ff"/><circle cx="956.5" cy="985.83" r="9.47" fill="#80b2ff"/><circle cx="924.03" cy="985.83" r="9.47" fill="#80b2ff"/><circle cx="1032.52" cy="690.74" r="103.92" fill="#fff" transform="rotate(-45 1032.526 690.744)"/><path fill="#005cea" d="M1032.38,686.56a32.81,32.81,0,0,1-25.5-12.49,32,32,0,0,1-7-20.29,32.65,32.65,0,1,1,65.3,0,31.93,31.93,0,0,1-7,20.29A32.91,32.91,0,0,1,1032.38,686.56Z"/><path fill="#005cea" d="M974.78,745c0,20.69,115.51,20.69,115.51,0l0-24.11c-4.57-33-106.1-34.34-115.51,0Z"/><path fill="#4d4d4d" d="M1234.61,978.49v19.07c0,3.3,24.45,3.3,24.45,0V978.49h-1.61v-1.44a10.58,10.58,0,0,0-21.16,0v1.44Zm19.07,0H1240v-1.44c0-3.88,2.33-7,6.88-7s6.81,3.33,6.81,7Zm-10.16,6.78a3.39,3.39,0,1,1,6.78,0,3.23,3.23,0,0,1-1.7,2.83v5.51a1.62,1.62,0,0,1-1.69,1.69,1.75,1.75,0,0,1-1.84-1.69V988.1A3.4,3.4,0,0,1,1243.52,985.27Z"/><path fill="#4d4d4d" d="M1246.84,894.87a6.92,6.92,0,0,1-5.38-2.64A6.75,6.75,0,0,1,1240,888a6.89,6.89,0,1,1,13.78,0,6.75,6.75,0,0,1-1.48,4.28A6.93,6.93,0,0,1,1246.84,894.87Z"/><path fill="#4d4d4d" d="M1234.69,907.2c0,4.36,24.5,4.36,24.5,0l-.13-5.09c-1-7-22.39-7.25-24.37,0Z"/><path fill="#80b2ff" d="M1088.5,904.71h99.06a7.91,7.91,0,0,0,7.9-7.89h0a7.91,7.91,0,0,0-7.9-7.89H1088.5a7.92,7.92,0,0,0-7.9,7.89h0A7.92,7.92,0,0,0,1088.5,904.71Z"/><path fill="#80b2ff" d="M957.84,904.71h99.06a7.91,7.91,0,0,0,7.9-7.89h0a7.91,7.91,0,0,0-7.9-7.89H957.84a7.92,7.92,0,0,0-7.9,7.89h0A7.92,7.92,0,0,0,957.84,904.71Z"/><path fill="#fff" d="M1166.66,1414.81v200.6c0,22.3-291.16,22.3-291.16,0v-200.6Z"/><ellipse cx="1021.08" cy="1490.58" fill="#005cea" rx="35.95" ry="33.68"/><path fill="#005cea" d="M1019,1501h4.26a12.61,12.61,0,0,1,12.61,12.61V1592a0,0,0,0,1,0,0h-29.47a0,0,0,0,1,0,0v-78.44A12.61,12.61,0,0,1,1019,1501Z" transform="rotate(180 1021.08 1546.475)"/><path fill="#fff" d="M901,1400.52h29.47V1387c0-46.8,40.64-84.88,90.59-84.88s90.59,38.08,90.59,84.88v13.51h29.47V1387c0-62-53.86-112.48-120.06-112.48S901,1325,901,1387Z"/><path fill="#003c99" d="M316.08,1917.5H2340.69a6,6,0,0,0,6-6h0a6,6,0,0,0-6-6H316.08a6,6,0,0,0-6,6h0A6,6,0,0,0,316.08,1917.5Z"/><path fill="#d9ffff" d="M129.1,1155.68h0c0-1.12,0-1.62,0-1.74C129.1,1154.15,129.1,1155.68,129.1,1155.68Z"/><path fill="#d9ffff" d="M129.1,1155.68h0c0-1.12,0-1.62,0-1.74C129.1,1154.15,129.1,1155.68,129.1,1155.68Z"/><path fill="#d9ffff" d="M801.28,1158.69v0Z"/><path fill="#d9ffff" d="M801.28,1158.69v0Z"/><path fill="#fff" d="M466.43,997.73c-74.41,79.7-193.14,145-320.19,172.86,0,8.48-.25,55.49-1.21,272.18-1.3,289.06,273.8,430.32,316.51,452,41.38-19,320-160.09,321.24-449.15,1-216.69,1.18-263.7,1.22-272.18C657.2,1144.47,540.12,1078.1,466.43,997.73Z"/><path fill="#80b2ff" d="M465.76,1029.08c-76.7,70.36-183,125.67-299.83,155.82l-1.15,257.82c-.53,118,46.34,224.7,139.31,317.22,61.08,60.79,125.3,98.5,157.89,115.45,1.4-.71,2.94-1.51,4.45-2.3V1029.68Z"/><path fill="#4d93ff" d="M466.43,1029.68v843.41c33.89-17.63,95.48-54.07,154.47-111.73,93.78-91.69,141.6-198,142.13-316l1.15-257.82C647.93,1156.47,542.45,1100.44,466.43,1029.68Z"/><path fill="#0046b3" d="M700.57,1288.11c-89,13.72-210.1,94.85-286.53,192.42-10.72-46-58.84-88-84-97.18L253.74,1460c47.63,21.46,99.67,82.28,106.57,144.53l76.2,11.81c32.13-63.46,115.1-215.25,280.17-296.88C713.5,1307.06,701.85,1289.88,700.57,1288.11Z"/><path fill="#f7a594" d="M1955.91,798.41,2171.66,797l185.58-1.92.8,28.16c-64.5,24.91-115.12,32.44-179.36,37.21C2113.6,882,2027.44,896.32,1960.79,901,1902.19,903.8,1897.31,801.2,1955.91,798.41Z"/><path fill="#112e59" d="M2051.57,792.29c-25.91-.49-102.55-8.61-150.32-3-43.23,17.75-32.5,93.14-12.7,105-.06,2.13,83.86,25.55,168.76.63C2070.08,880,2065.76,807.22,2051.57,792.29Z"/><path fill="#1d498c" d="M2068.75,897.91c-13.45,4.79-26.09,7.83-35.55,4-5.6.26-11.84-112.67-6.23-112.94l35.31-1.68C2073.49,786.72,2080,897.38,2068.75,897.91Z"/><path fill="#f7a594" d="M2335.8,795.57c6.28-29.06,16.31-70.39,28.5-71,2.63-.13,3,1.57,2.88,9.31-6.06,51.66,7.89,65.67,1.15,80.27-7.41,14.15-27.83,13.87-27.83,13.87C2329.06,822.93,2328.12,803.79,2335.8,795.57Z"/><path fill="#f7a594" d="M2350.34,789.31l12.71-37.52s8.3,1.45,6.55,11.37-3.86,20.6-3.86,20.6,9.94,21.47,2,30.36S2346.22,814.33,2350.34,789.31Z"/><path fill="#d97b69" d="M2369.51,812.54l-1-.31c4.33-13.55-3.19-28.09-3.26-28.24l-.09-.15,0-.18c0-.11,2.13-10.79,3.86-20.59.69-3.92-.13-6.93-2.45-8.93a8.76,8.76,0,0,0-3.27-1.75l-12.56,37.08-1-.32,12.85-37.94.43.08a9.51,9.51,0,0,1,4.17,2.08c1.79,1.55,3.73,4.52,2.79,9.88-1.61,9.13-3.55,19-3.83,20.43C2367.1,785.35,2373.72,799.38,2369.51,812.54Z"/><path fill="#d97b69" d="M2344.76,771.42l-1-.24c.45-1.79,11.15-43.8,20.35-47.06l.34,1C2355.78,728.16,2344.87,771,2344.76,771.42Z"/><path fill="#231f20" d="M1687.2,1910.61h99.27a11.08,11.08,0,0,0,4.25-4c1.59-73.82,7.25-109.37,7.25-109.37l-69.27-2.81-13,54.92C1693.27,1865.19,1667.29,1899.15,1687.2,1910.61Z"/><path fill="#231f20" d="M1794.05,1911.94H1676.37c-3,0-2.77-16.37.22-16.37l117,.66C1796.67,1896.23,1797.12,1911.94,1794.05,1911.94Z"/><path fill="#112e59" d="M1781.87,1136c-7,54.66-37.06,189.66-33.83,338.11-32.52,189.2-36.1,230.87-40,347.57l99.22,3.71c15.88-81.49,48.47-210.12,63.24-335.62,32.06-98.89,53.08-239.83,63.4-351.73C1944.26,1041.55,1807.91,1002.56,1781.87,1136Z"/><path fill="#231f20" d="M1756.5,1826.25l-2,0c.18-13.46,40.5-468.47,81.45-652.93l2,.44C1797,1358.09,1756.68,1812.8,1756.5,1826.25Z"/><path fill="#112e59" d="M1881.58,1142.63c14,188.24,55.18,348.13,55.18,348.13-8.06,128.42,14.72,251.74,30.92,336.09l94.39-.84c5.47-82.59-6.22-529.62-30.64-681.23C2019.79,1010.72,1864.74,1003.55,1881.58,1142.63Z"/><path fill="#231f20" d="M1985.54,1826.85c-4.22,30.42-7.16,54.15-3.46,81.68l154.36,3s14.56-14.87-5.7-37.17-56.09-9.4-81.56-48.37Z"/><path fill="#231f20" d="M2143.47,1911.94H1979.62c-3,0-3-16.37,0-16.37l163.18.66C2145.88,1896.23,2146.54,1911.94,2143.47,1911.94Z"/><rect width="2.03" height="650.86" x="2022.94" y="1174.53" fill="#231f20" transform="rotate(-2.85 2021.6 1498.359)"/><path fill="#112e59" d="M2031.1,1121.24l-245.36,18.7c2.22-153.63-67.15-259.71-52.7-299.27,19.84-54.35,164.45-54.73,219.53-33.54,21.88,8.42,57.44,57.08,61.64,118.32,1.17,28.49,1.46,48-1.32,70.81S2031.1,1121.24,2031.1,1121.24Z"/><path fill="#f7a594" d="M1884.44,837.72c-11.4-9.06-56.9-23-69-33l2.73-79,44.73-4.36A133,133,0,0,1,1900,730l10.07,52,2.22,11.28C1917.37,804.41,1907.33,817.8,1884.44,837.72Z"/><path fill="#e6836f" d="M1833.22,743.68c7,10.8,36.4,38.45,76.86,38.35l-8.71-45Z"/><path fill="#f7a594" d="M1932.24,639.64c3.5,15.56,10.73,49.72,9.55,65.45-1.8,23.95-24.17,50.52-43.68,54-22.59,2.31-53-4.42-69.56-18.62-9.2-10.78-27-36.36-35.2-58.75-17.09-46.7,15.9-87.65,57.77-97.1S1921.3,591.13,1932.24,639.64Z"/><path fill="#4d261c" d="M1807.37,712.57c-8.73-15.36,2.87-21.59,15.59-9.66-2.18-11.59-15.39-45.56-3.69-56.83,13.23-13.07,71.42-7.38,102.68-40,0,0-23.3-51.08-99.78-20.91C1735.79,631,1807.37,712.57,1807.37,712.57Z"/><ellipse cx="1806.85" cy="707.23" fill="#f7a594" rx="14.65" ry="18.85" transform="rotate(-39.72 1807.04 707.232)"/><path fill="#112e59" d="M1922.67,608.22c-9.72-3-125.47,43-122.43,51.62,0,0,83.81.39,141.43-25.85C1973.12,619.67,1922.67,608.22,1922.67,608.22Z"/><path fill="#1d498c" d="M1782.79,667.23,1923.39,608l-4.8-19.92-148.95,61.45C1772.59,656.36,1777.68,663.78,1782.79,667.23Z"/><path fill="#112e59" d="M1765.58,654c-15.38,5.86-23.62-3.53-8.09-21.41,24-27.57,40.33-98.11,75.92-110.89,24.53-8.82,43.09,19.9,75.65,37.74,14.76,8.1,23,16.56,17.5,26.5C1909.74,598.49,1781.68,647.81,1765.58,654Z"/><path fill="#f7bd0c" d="M1863.2,548.22c-.17-.45-.25-.68-.29-.79a37.34,37.34,0,0,1-10.4,0,29.85,29.85,0,0,1-9.11-2.72h0l0,0a27.29,27.29,0,0,1-2.12,4.07,34.2,34.2,0,0,1-4.07,5.17c-.78.83-1.59,1.64-2.47,2.41a37.12,37.12,0,0,1-4.17,3.16l1.77,4.7c.25.68.54,1.46.88,2.34.16.45.34.91.52,1.41.57,1.49,1.22,3.25,2,5.3a23.07,23.07,0,0,0,4.11,6.94,22.54,22.54,0,0,0,1.72,1.79,26.59,26.59,0,0,0,5.72,4.05,33.7,33.7,0,0,0,5.73,2.39,38,38,0,0,0,5.92,1.34c.7.09,1.23.14,1.54.17a38.9,38.9,0,0,0,3.65-4.58,35.79,35.79,0,0,0,2-3.21c.32-.59.63-1.21.93-1.85a24.39,24.39,0,0,0,1.09-19.17Z"/><path fill="#fff" d="M1862.44,563.46a11.24,11.24,0,1,1-14.43-6.6A11.21,11.21,0,0,1,1862.44,563.46Z"/><path fill="#231f20" d="M1883.42,815.88l7.39,15.5,1.14-16.47,10,26.47c-2.48-4.39-10.94-8.25-10.94-8.25a30.56,30.56,0,0,0-13.67,14.28Z"/><path fill="#1d498c" d="M1816,785.77c11,14.25,47,24,67.44,30.11l-6.11,31.53c-24.6-8.31-56.41-17.74-70.67-47.18C1803.42,792.22,1807.27,787.77,1816,785.77Z"/><path fill="#1d498c" d="M1910.23,780.8c-1.09,5.19-1.93,25.51-18.28,34.11l10,26.47c22.54-12.9,23.72-24.84,20.25-43.58C1920.75,790.34,1918.26,782.36,1910.23,780.8Z"/><path fill="#231f20" d="M1929.75,1135.31a1,1,0,0,1-1-.9c-2.52-23.41-4.57-51.33-6.73-80.9-5.9-80.53-12.58-171.81-32-220a1,1,0,0,1,1.89-.76c19.5,48.49,26.2,139.94,32.1,220.62,2.17,29.54,4.21,57.44,6.73,80.82a1,1,0,0,1-.9,1.12Z"/><path fill="#231f20" d="M1785.78,1114.77c48,12.86,236,7.94,243.51,2.21,11.43-2.57,14,38.56,7.38,48.47-10.15,15.16-251.73,12.74-259.37,1.84S1772.23,1111.14,1785.78,1114.77Z"/><path fill="#f7bd0c" d="M1971.56,892.28c-.06-.47-.08-.71-.1-.82a36.47,36.47,0,0,1-9.81-2.44,29.13,29.13,0,0,1-8-4.7h0l0,0a26.85,26.85,0,0,1-3,3.34,33,33,0,0,1-5.06,3.94c-.93.59-1.88,1.17-2.89,1.69a37.51,37.51,0,0,1-4.68,2c0,.27.16,1.33.57,4.85.08.7.17,1.5.28,2.41,0,.46.11.94.17,1.46.18,1.54.39,3.34.63,5.46a22.28,22.28,0,0,0,2.25,7.52c.38.73.78,1.43,1.21,2.1a26.15,26.15,0,0,0,4.45,5.16,32.81,32.81,0,0,0,4.85,3.59,36.75,36.75,0,0,0,5.28,2.65c.64.26,1.13.43,1.41.52a37,37,0,0,0,4.53-3.47c.83-.75,1.71-1.61,2.59-2.58.44-.48.87-1,1.3-1.53a23.72,23.72,0,0,0,5.53-17.84C1972.13,897.18,1971.72,893.68,1971.56,892.28Z"/><rect width="47.5" height="8.71" x="1936.38" y="940.84" fill="#1d498c" transform="rotate(-5.56 1960.534 945.356)"/><path fill="#231f20" d="M1931.15,1274.31h-14.51l.29-1.24c6.52-27.57,7.41-94.64,7.42-95.31l2,0c0,.66-.88,66-7.19,94.49h10.31c1.33-6.75,10.37-54.26,8.09-92.8l2-.12c2.47,41.65-8.18,93.63-8.29,94.15Z"/><path fill="#f7a594" d="M1694.17,963.08s-19.09,108.08.37,146.2c20.12,39.38,205.84,48,205.84,48l6.66-55.89-128-32.48,27.8-82.77Z"/><path fill="#112e59" d="M1742.32,824.08s-54,65.83-56.13,160.13c70.33,51.28,116.66,14.34,116.66,14.34s35.67-94.25,27.76-140.12S1758.29,807.43,1742.32,824.08Z"/><path fill="#1d498c" d="M1688.59,956c9.52,11.59,118.82,34.2,121.08,21.48,3,12.15,2.39,24-7.41,35.07-2.79,17.67-121.28-.94-118.5-18.61Q1673.44,977.49,1688.59,956Z"/><path fill="#231f20" d="M1809.67,978.45a1.07,1.07,0,0,1-.52-.14,1,1,0,0,1-.36-1.39c7.89-13.36,14.51-31.42,18.16-49.53a1,1,0,1,1,2,.4c-3.7,18.33-10.4,36.61-18.4,50.16A1,1,0,0,1,1809.67,978.45Z"/><path fill="#d9ffff" d="M1822.78,970.21h0c0-.65,0-.93,0-1C1822.79,969.33,1822.78,970.21,1822.78,970.21Z"/><path fill="#d9ffff" d="M1822.78,970.21h0c0-.65,0-.93,0-1C1822.79,969.33,1822.78,970.21,1822.78,970.21Z"/><path fill="#d9ffff" d="M2208.29,974.45s0-.87,0-1c0,.07,0,.35,0,1Z"/><path fill="#d9ffff" d="M2208.29,974.45s0-.87,0-1c0,.07,0,.35,0,1Z"/><path fill="#fff" d="M2017,867.8c-45.24,47.61-117.19,86.4-194,102.62-.06,5.1-.37,33.35-1.82,163.58-1.93,173.72,163.61,259.7,189.31,272.9,25.06-11.28,193.81-94.94,195.74-268.66,1.45-130.23,1.76-158.48,1.82-163.58C2131.62,956.75,2061.19,916.39,2017,867.8Z"/><path fill="#007880" d="M2016.35,899.2c-44.26,39.88-105.42,71-172.55,87.82l-1.64,147.19c-.75,67.35,25.73,128.46,78.7,181.63a382.29,382.29,0,0,0,90.12,66.5c.81-.4,1.69-.85,2.56-1.3l3.19-481.5Z"/><path fill="#008f99" d="M2016.73,899.54l-3.19,481.5a381.88,381.88,0,0,0,89-63.2c54.13-52,82-112.5,82.71-179.85l1.64-147.19C2120.35,972.61,2060.06,940.23,2016.73,899.54Z"/><path fill="#fff" d="M1937.45,1111.19l-.75,114c-.09,12.69,155.66,13.71,155.75,1l.75-114Zm85.36,61.11-.22,32.32a7.88,7.88,0,0,1-15.76-.1l.22-32.39a19.16,19.16,0,1,1,15.76.17Z"/><path fill="#fff" d="M2079.62,1104l-15.76-.1,0-7.68a48.47,48.47,0,0,0-96.94-.64l0,7.68-15.77-.1,0-7.68c.23-35.26,29.24-63.75,64.66-63.52a64.15,64.15,0,0,1,63.81,64.36Z"/></svg>