<svg xmlns="http://www.w3.org/2000/svg" viewBox="0 0 2500 2500"><g data-name="Setting Profile"><rect width="764.39" height="1372.3" x="368.45" y="343.12" fill="#fff" rx="33.99"/><path fill="#142448" d="M1099.53 1717.41H401.76a34.46 34.46 0 0 1-34.42-34.41V375.55a34.46 34.46 0 0 1 34.42-34.42h697.77a34.46 34.46 0 0 1 34.47 34.42V1683a34.46 34.46 0 0 1-34.47 34.41ZM401.76 346.76A28.82 28.82 0 0 0 373 375.55V1683a28.82 28.82 0 0 0 28.79 28.79h697.77a28.82 28.82 0 0 0 28.79-28.79V375.55a28.82 28.82 0 0 0-28.79-28.79Z"/><rect width="560.27" height="391.55" x="476.81" y="1217.1" fill="#dce0ec" rx="20.14"/><path fill="#46c869" d="M1851.92 1016.86 1623 1589l12.78 544.89h-220.32l-2.88-609.12a101.71 101.71 0 0 1 1.86-35.76L1615 1016.86Z"/><path fill="#142448" d="M1598.28 2133.92v109.77h-160.85a10 10 0 0 1-7.78-16.19l31-38.69v-54.89ZM2155.6 2133.92l18.53 109.77h-179.38a10 10 0 0 1-7.78-16.19l31-38.69-8.8-54.89Z"/><path fill="#46c869" d="m1673.21 1046.56 80.52 520.73 215.65 566.63h221.72l-221.72-621.55-58.34-505.77-237.83 39.96z"/><path fill="#567aff" d="m1556.44 702.79 68.72 20.39A91.61 91.61 0 0 1 1637 832.82l-157 263.11a114.87 114.87 0 0 1-92.83 55.86l-313-7.82-1.69-143.28 281.82-19.56Z"/><path fill="#fdd8a9" d="m1072.74 1020-68.94 7.64-53.8 72.76s-15.33 25.53 18.48 20.17c0 0-7.52 34.93 20 21.87-3.32 9.83-3.21 28.73 18.5 18.83l26.33-33.89 40.62-1.07Z"/><path fill="#142448" d="M988.55 1145.25a2.81 2.81 0 0 1-2.26-4.49l31.32-42a2.82 2.82 0 1 1 4.51 3.37l-31.32 42a2.8 2.8 0 0 1-2.25 1.12ZM966.71 1126.81a2.82 2.82 0 0 1-2.21-4.56L1002 1075a2.81 2.81 0 1 1 4.41 3.49l-37.5 47.29a2.8 2.8 0 0 1-2.2 1.03Z"/><path fill="#46c869" d="m1332.87 1403.33 33.44-4.77c9.21-1.32 9.16-14.65-.06-15.89l-33.34-4.5a8 8 0 0 1-6.87-6.84l-4.63-33.32c-1.28-9.22-14.6-9.22-15.88 0l-4.65 33.46a8 8 0 0 1-6.81 6.84l-33.44 4.77c-9.21 1.32-9.16 14.64.07 15.89l33.33 4.5a8 8 0 0 1 6.87 6.84l4.63 33.32c1.28 9.22 14.6 9.22 15.88 0l4.65-33.46a8 8 0 0 1 6.81-6.84Z"/><path fill="#dce0ec" d="m268 1518.87 33.44-4.78c9.21-1.32 9.16-14.64-.07-15.89l-33.33-4.49a8 8 0 0 1-6.87-6.85l-4.63-33.31c-1.28-9.22-14.6-9.22-15.88 0L236 1487a8 8 0 0 1-6.81 6.84l-33.44 4.78c-9.21 1.31-9.16 14.64.06 15.88l33.34 4.5a8 8 0 0 1 6.87 6.84l4.63 33.32c1.28 9.22 14.6 9.22 15.88 0l4.65-33.46a8 8 0 0 1 6.82-6.83ZM1245.73 1337.45l17-2.42a4.07 4.07 0 0 0 0-8.07l-16.92-2.28a4.08 4.08 0 0 1-3.49-3.48l-2.35-16.91a4.07 4.07 0 0 0-8.06 0l-2.36 17a4.06 4.06 0 0 1-3.46 3.47l-17 2.43a4.07 4.07 0 0 0 0 8.06l16.93 2.29a4.06 4.06 0 0 1 3.49 3.47l2.35 16.92a4.07 4.07 0 0 0 8.06 0l2.36-17a4.07 4.07 0 0 1 3.45-3.48Z"/><path fill="#567aff" d="m1244.5 1581 14.85-2.12a3.56 3.56 0 0 0 0-7.06l-14.81-2a3.56 3.56 0 0 1-3.06-3l-2-14.8a3.56 3.56 0 0 0-7.06 0l-2.07 14.86a3.54 3.54 0 0 1-3 3l-14.95 2.12a3.56 3.56 0 0 0 0 7.06l14.81 2a3.55 3.55 0 0 1 3 3l2.06 14.8a3.56 3.56 0 0 0 7.06 0l2.06-14.86a3.56 3.56 0 0 1 3.11-3Z"/><path fill="#46c869" d="m1270 442.24-33.44-4.78c-9.22-1.31-9.17-14.64.06-15.88l33.33-4.5a8 8 0 0 0 6.88-6.84l4.62-33.32c1.28-9.22 14.61-9.22 15.89 0l4.65 33.46a8 8 0 0 0 6.8 6.83l33.44 4.78c9.22 1.32 9.17 14.64-.06 15.89l-33.33 4.49a8 8 0 0 0-6.87 6.85l-4.63 33.31c-1.28 9.22-14.61 9.22-15.89 0l-4.64-33.45a8 8 0 0 0-6.81-6.84Z"/><path fill="#567aff" d="m1357.12 376.36-17-2.43a4.07 4.07 0 0 1 0-8.06l16.93-2.29a4.06 4.06 0 0 0 3.49-3.47l2.35-16.92a4.07 4.07 0 0 1 8.06 0l2.36 17a4.07 4.07 0 0 0 3.46 3.47l17 2.43a4.07 4.07 0 0 1 0 8.06l-16.92 2.28a4.08 4.08 0 0 0-3.49 3.48l-2.36 16.9a4.07 4.07 0 0 1-8.06 0l-2.36-17a4.06 4.06 0 0 0-3.46-3.45ZM298.49 1411.61l-17-2.43a4.07 4.07 0 0 1 0-8.07l16.92-2.28a4.06 4.06 0 0 0 3.49-3.47l2.35-16.92a4.07 4.07 0 0 1 8.06 0l2.36 17a4.07 4.07 0 0 0 3.46 3.47l17 2.42a4.07 4.07 0 0 1 0 8.07l-16.92 2.28a4.08 4.08 0 0 0-3.49 3.48l-2.35 16.91a4.07 4.07 0 0 1-8.06 0l-2.36-17a4.06 4.06 0 0 0-3.46-3.46Z"/><path fill="#dce0ec" d="m1221 285.59-14.85-2.12a3.56 3.56 0 0 1 0-7.06l14.82-2a3.55 3.55 0 0 0 3-3l2-14.8a3.56 3.56 0 0 1 7.06 0l2.07 14.87a3.55 3.55 0 0 0 3 3l14.86 2.13a3.56 3.56 0 0 1 0 7l-14.81 2a3.57 3.57 0 0 0-3 3l-2.06 14.81a3.56 3.56 0 0 1-7.06 0l-2.06-14.87a3.57 3.57 0 0 0-2.97-2.96Z"/><path fill="#142448" d="M1131.13 438.73h-761a2.81 2.81 0 0 1 0-5.62h761a2.81 2.81 0 1 1 0 5.62ZM1058.88 950.24H442.41a2.81 2.81 0 1 1 0-5.62h616.47a2.81 2.81 0 1 1 0 5.62ZM1058.88 977.68H442.41a2.82 2.82 0 1 1 0-5.63h616.47a2.82 2.82 0 0 1 0 5.63ZM430 415.42A23.38 23.38 0 1 1 453.36 392 23.41 23.41 0 0 1 430 415.42Zm0-41.14A17.76 17.76 0 1 0 447.73 392 17.78 17.78 0 0 0 430 374.28ZM502.15 415.42A23.38 23.38 0 1 1 525.54 392a23.41 23.41 0 0 1-23.39 23.42Zm0-41.14A17.76 17.76 0 1 0 519.91 392a17.78 17.78 0 0 0-17.76-17.72ZM574.33 415.42A23.38 23.38 0 1 1 597.71 392a23.41 23.41 0 0 1-23.38 23.42Zm0-41.14A17.76 17.76 0 1 0 592.09 392a17.78 17.78 0 0 0-17.76-17.72Z"/><circle cx="750.64" cy="625.36" r="139.37" fill="#567aff"/><path fill="#fff" d="M750.64 648.79a121.74 121.74 0 0 1 97.25 48.38 121.92 121.92 0 1 0-194.49 0 121.72 121.72 0 0 1 97.24-48.38Z"/><circle cx="750.64" cy="584.3" r="48.06" fill="#567aff"/><rect width="554.91" height="91.95" x="473.19" y="803.21" fill="#567aff" rx="45.97"/><circle cx="606.88" cy="849.19" r="20.57" fill="#fff"/><circle cx="678.76" cy="849.19" r="20.57" fill="#fff"/><circle cx="750.64" cy="849.19" r="20.57" fill="#fff"/><circle cx="822.52" cy="849.19" r="20.57" fill="#fff"/><circle cx="894.41" cy="849.19" r="20.57" fill="#fff"/><path fill="#567aff" d="m1750.34 643.38 5.14-.86c54.66-9.19 106 23.11 115.8 72.79l56.64 288.45-347 58.3-39.42-298.76c-7.65-45.56 26.58-89.29 76.46-97.67Z"/><path fill="#fdd8a9" d="M1700.68 545.74 1718 648.82a57.41 57.41 0 0 1-47.11 66.18 57.41 57.41 0 0 1-66.14-47.1l-12-71.39Z"/><path fill="#46c869" d="m1716.86 499-11.77-70a31.46 31.46 0 0 0-36.24-25.81l-85.77 14.41 6.39 38Z"/><circle cx="1555.73" cy="488.18" r="37.4" fill="#567aff"/><path fill="#fdd8a9" d="M1630.14 466.61a79.44 79.44 0 0 1 79.44 79.44v79H1550.7v-79a79.44 79.44 0 0 1 79.44-79.44Z" transform="rotate(170.46 1630.138 545.856)"/><ellipse cx="1684.49" cy="487.95" fill="#46c869" rx="22.45" ry="41.62" transform="rotate(-9.54 1684.258 487.902)"/><circle cx="1657.06" cy="453.75" r="42.28" fill="#46c869"/><ellipse cx="1698.98" cy="517.83" fill="#fdd8a9" rx="27.88" ry="27.8" transform="rotate(-9.54 1698.72 517.77)"/><ellipse cx="1623.3" cy="528.87" fill="#142448" rx="6.75" ry="6.74" transform="rotate(-9.54 1623.04 528.831)"/><ellipse cx="1568.73" cy="538.04" fill="#142448" rx="6.75" ry="6.74" transform="rotate(-9.54 1568.516 537.978)"/><path fill="#142448" d="M1690 530.83a2.81 2.81 0 0 1-2-4.75l16.62-17.45a2.81 2.81 0 1 1 4.07 3.87L1692 530a2.81 2.81 0 0 1-2 .83ZM1609 586.37a33.57 33.57 0 0 1-6-.59 2.82 2.82 0 0 1 1-5.54c6.09 1.14 10.81.32 14-2.41 5.22-4.43 5.19-12.8 5.19-12.88a2.81 2.81 0 0 1 2.75-2.88h.06a2.82 2.82 0 0 1 2.81 2.76c0 .45.15 11.07-7.17 17.28a18.89 18.89 0 0 1-12.64 4.26ZM1596.29 617.51s33 14.4 65.84.84c0 0-24.89 20.89-63.49 13.12ZM934.9 2246.5c-134.27-.27-270.46-.27-404.79 0a2.81 2.81 0 1 1 0-5.62c134.34-.27 270.54-.27 404.81 0a2.81 2.81 0 1 1 0 5.62ZM2308.29 2246.5c-392.5-.27-790.51-.27-1183 0a2.81 2.81 0 0 1 0-5.62c392.45-.27 790.46-.27 1183 0a2.81 2.81 0 0 1 0 5.62Z"/><path fill="#46c869" d="M1583.08 417.61 1517 428.72a26.42 26.42 0 0 0-21.57 21.17c-4.29 22.73-5.31 60.56 29.08 77.89l41.38-6.95s-9-16.09-2.77-28.75c0 0 2.86 24.33 13.91 26.88l12.66-2.13s-8.62-27.62 3-34.85l49.7-8.35-8.39-49.51Z"/><path fill="#fdd8a9" d="m1013 1027-53.34 3.75a14.1 14.1 0 0 0-13.11 14.07 14.09 14.09 0 0 0 14.1 14.09H1013Z"/><path fill="#142448" d="M714.93 1568.9H528.17a18.32 18.32 0 0 1-18.3-18.31v-272.65a18.32 18.32 0 0 1 18.3-18.3h186.76a18.32 18.32 0 0 1 18.3 18.3v272.65a18.32 18.32 0 0 1-18.3 18.31Zm-186.76-303.63a12.69 12.69 0 0 0-12.68 12.67v272.65a12.7 12.7 0 0 0 12.68 12.68h186.76a12.7 12.7 0 0 0 12.68-12.68v-272.65a12.69 12.69 0 0 0-12.68-12.67Z"/><rect width="217.74" height="142.8" x="770.81" y="1262.46" fill="#567aff" rx="10.27"/><rect width="217.74" height="119.46" x="770.81" y="1446.62" fill="#fff" rx="10.27"/><path fill="#142448" d="M1036.89 1116.42a2.71 2.71 0 0 1-1.29-.32c-23.1-11.9-36.35-45.75-39.4-54.35h-16.41a2.82 2.82 0 1 1 0-5.63h18.42a2.8 2.8 0 0 1 2.67 2c.13.41 13.39 40.71 37.3 53a2.82 2.82 0 0 1-1.29 5.32ZM1566.33 954.11a2.81 2.81 0 0 1-2.8-2.61l-10.61-148a2.81 2.81 0 0 1 5.61-.4l10.61 148a2.83 2.83 0 0 1-2.61 3ZM1718.8 1352.39a2.82 2.82 0 0 1-2.72-2.09l-68.83-257.53a2.81 2.81 0 0 1 5.44-1.45l68.83 257.53a2.82 2.82 0 0 1-2 3.45 3.1 3.1 0 0 1-.72.09ZM1901.03 1008.28l-317.95 83.77 13.88-32.68 304.07-51.09z"/><rect width="554.91" height="91.95" x="475.62" y="1054.47" fill="#46c869" rx="45.97" transform="rotate(10.49 753.035 1100.351)"/><circle cx="611.72" cy="1074.27" r="20.57" fill="#fff"/><circle cx="682.4" cy="1087.36" r="20.57" fill="#fff"/><circle cx="753.08" cy="1100.44" r="20.57" fill="#fff"/><circle cx="823.76" cy="1113.53" r="20.57" fill="#fff"/><circle cx="894.44" cy="1126.62" r="20.57" fill="#fff"/><path fill="#fff" d="M1460.61 2136.73a2.8 2.8 0 0 1-2.8-2.81l1-629.53a3 3 0 0 1 .24-1.12l136.3-311.52a2.82 2.82 0 1 1 5.16 2.26l-136.07 311-1 628.94a2.81 2.81 0 0 1-2.83 2.78ZM2118.47 2103.26a2.82 2.82 0 0 1-2.6-1.73l-243.94-582.63a2.72 2.72 0 0 1-.21-1.29l9.86-135.43a2.81 2.81 0 1 1 5.61.41l-9.82 134.76 243.69 582a2.81 2.81 0 0 1-1.51 3.68 2.75 2.75 0 0 1-1.08.23Z"/><path fill="#567aff" d="m1708.61 689.93 50.67-44.93A91.6 91.6 0 0 1 1867 668.91l199 233a114.88 114.88 0 0 1 23.19 105.82l-107.64 294-139.38-32.47 74.82-285Z"/><path fill="#fdd8a9" d="m1861.29 1273.92-12.55 57.26 51.68 74.23s19.28 22.69 25-11c0 0 30.69 18.31 27.14-12 8.25 6.28 26.19 12.23 23.77-11.5l-23.68-35.8 11.56-37.4Z"/><path fill="#142448" d="M1952.59 1385.2a2.82 2.82 0 0 1-2.32-1.22l-26.13-37.87a2.81 2.81 0 1 1 4.63-3.19l26.13 37.87a2.81 2.81 0 0 1-.72 3.91 2.77 2.77 0 0 1-1.59.5ZM1925.45 1397.18a2.81 2.81 0 0 1-2.28-1.16L1896 1358.6a2.81 2.81 0 0 1 4.55-3.3l27.16 37.41a2.82 2.82 0 0 1-2.27 4.47ZM1911 1009.41a2.81 2.81 0 0 1-2.16-1L1761.05 832a2.81 2.81 0 1 1 4.31-3.61l146.69 175 39.84-10.18a2.81 2.81 0 1 1 1.39 5.45l-41.55 10.62a2.72 2.72 0 0 1-.73.13Z"/><path fill="#fff" d="M1526.27 1228.59a2.81 2.81 0 0 1-1.17-5.37l123.7-56.79a2.81 2.81 0 0 1 2.34 5.11l-123.7 56.79a2.72 2.72 0 0 1-1.17.26Z"/><path fill="#142448" d="M690.31 1345.36H549.39a2.81 2.81 0 0 1-2.81-2.81v-41.77a2.81 2.81 0 0 1 2.81-2.82h140.92a2.82 2.82 0 0 1 2.82 2.82v41.77a2.81 2.81 0 0 1-2.82 2.81Zm-138.11-5.62h135.3v-36.15H552.2ZM690.31 1414.52H549.39a2.81 2.81 0 0 1-2.81-2.81v-41.78a2.81 2.81 0 0 1 2.81-2.81h140.92a2.81 2.81 0 0 1 2.82 2.81v41.78a2.81 2.81 0 0 1-2.82 2.81Zm-138.11-5.63h135.3v-36.15H552.2ZM685.66 1449.43H557.44a2.81 2.81 0 0 1 0-5.62h128.22a2.81 2.81 0 1 1 0 5.62ZM685.66 1476.87H557.44a2.82 2.82 0 0 1 0-5.63h128.22a2.82 2.82 0 0 1 0 5.63ZM685.66 1500.49H557.44a2.81 2.81 0 0 1 0-5.62h128.22a2.81 2.81 0 1 1 0 5.62ZM685.66 1527.93H557.44a2.82 2.82 0 0 1 0-5.63h128.22a2.82 2.82 0 0 1 0 5.63ZM964.27 1495.45H795.09a2.82 2.82 0 1 1 0-5.63h169.18a2.82 2.82 0 0 1 0 5.63ZM964.27 1522.88H795.09a2.81 2.81 0 1 1 0-5.62h169.18a2.81 2.81 0 0 1 0 5.62Z"/><path fill="#fff" d="M964.27 1323H795.09a2.82 2.82 0 1 1 0-5.63h169.18a2.82 2.82 0 0 1 0 5.63ZM964.27 1350.38H795.09a2.81 2.81 0 1 1 0-5.62h169.18a2.81 2.81 0 1 1 0 5.62Z"/><path fill="#142448" d="M1368.87 1009.41a2.82 2.82 0 0 1-2.45-1.42l-14.53-25.46a2.81 2.81 0 1 1 4.88-2.79l14.54 25.46a2.82 2.82 0 0 1-2.44 4.21Z"/></g></svg>