<svg xmlns="http://www.w3.org/2000/svg" enable-background="new 0 0 2500 2500" viewBox="0 0 2500 2500"><path d="M739.42,741.68H420.31c-9.46,0-17.13-7.67-17.13-17.13V553.64c0-97.41,79.25-176.66,176.66-176.66
					c97.45,0,176.7,79.25,176.7,176.66v170.91C756.54,734.01,748.88,741.68,739.42,741.68z M437.43,707.43h284.86V553.64
					c0-78.53-63.88-142.41-142.41-142.41c-78.56,0-142.45,63.88-142.45,142.41V707.43z"/><path fill="#fff" d="M2203.21,1108.34l-213.32,39.83c0,0-57.86-167.73-93.9-185.11c-29.59-14.25-72.38-31.93-92.57-43.45
								c-9.4-5.37-15.34-15.18-15.77-26c-0.1-2.76,0.14-5.45,0.7-8c3.58-16.35,19.9-27.62,37.22-23.92l71.04,15.21l-0.02-0.04
								c-0.53-1.49-17.75-48.99-16.48-73.11c0.91-16.97,15.48-30.56,31.88-28.5c1.8,0.2,3.63,0.6,5.43,1.22
								c5.58,1.86,11.25,5.65,16.5,11.8c0,0-1.79-43.9,23.92-48.02c10.96-1.74,19.32,0.63,25.27,4.01
								c6.62,3.65,10.31,8.47,11.43,10.05l0.36,0.56c0,0,7.04-31.42,27.29-31.83c21.53-0.44,41.3,24.91,41.3,24.91
								s12.73-19.16,43.71-8.33c30.97,10.86,53.49,59.01,70.69,119.19C2195.07,918.93,2203.21,1108.34,2203.21,1108.34z"/><path d="M1989.88,1151.59c-1.43,0-2.75-0.91-3.23-2.31c-19.85-57.55-64.67-169.89-92.15-183.15
								c-11.34-5.46-24.84-11.52-37.89-17.38c-21.76-9.77-42.32-19-54.89-26.18c-10.48-5.99-17.01-16.77-17.5-28.84
								c-0.11-3.05,0.15-6.03,0.78-8.87c4.07-18.62,22.57-30.53,41.28-26.54l65.07,13.93c-4.79-14.1-15.72-48.8-14.67-68.7
								c0.52-9.57,4.98-18.54,12.26-24.62c6.74-5.63,15.09-8.15,23.47-7.1c2.05,0.23,4.12,0.7,6.12,1.38
								c4.26,1.42,8.32,3.75,12.12,6.95c0.88-13.7,5.35-39.9,26.64-43.31c10.09-1.61,19.6-0.07,27.5,4.41
								c3.65,2.01,6.5,4.34,8.63,6.47c3.44-9.9,11.94-27.8,28.69-28.13c0.21,0,0.42-0.01,0.63-0.01c18.17,0,34.52,16.09,40.78,23.08
								c5.63-5.53,19.75-15.06,44.8-6.31c28.51,10,52.35,49.74,72.86,121.48c17.1,59.84,25.11,242.6,25.44,250.35
								c0.07,1.7-1.12,3.2-2.79,3.52l-213.32,39.83C1990.31,1151.57,1990.09,1151.59,1989.88,1151.59z M1819.01,864.41
								c-12.85,0-24.47,8.92-27.32,21.93c-0.5,2.28-0.71,4.68-0.63,7.14c0.39,9.68,5.64,18.35,14.05,23.15
								c12.28,7.01,33.63,16.6,54.29,25.88c13.1,5.88,26.64,11.96,38.06,17.46c34.72,16.75,86.68,161.5,94.68,184.3l207.5-38.74
								c-1.13-24.33-9.35-190.82-25.06-245.79c-19.58-68.48-42.64-107.82-68.53-116.9c-27.9-9.75-39.26,6.32-39.73,7.01
								c-0.62,0.9-1.63,1.47-2.72,1.5c-1.21,0.12-2.15-0.44-2.82-1.3c-0.19-0.24-19.03-24.06-38.53-23.59
								c-17.31,0.34-23.96,28.87-24.02,29.16c-0.3,1.35-1.39,2.38-2.75,2.62c-1.38,0.24-2.73-0.36-3.48-1.53l-0.35-0.56
								c-1.08-1.52-4.44-5.72-10.2-8.89c-6.67-3.79-14.44-4.99-23.08-3.63c-22.4,3.59-21.06,44.09-21.04,44.5
								c0.06,1.46-0.82,2.79-2.17,3.32c-1.35,0.54-2.91,0.14-3.85-0.97c-4.57-5.36-9.61-8.98-14.97-10.77
								c-1.56-0.54-3.14-0.89-4.74-1.07c-6.5-0.82-12.99,1.15-18.26,5.55c-5.83,4.87-9.41,12.06-9.81,19.73
								c-0.97,18.34,9.76,53.7,16.26,71.7c0.4,1.05,0.28,2.25-0.38,3.19c-0.79,1.13-2.17,1.7-3.52,1.41l-71.04-15.21
								C1822.89,864.61,1820.93,864.41,1819.01,864.41z"/><path fill="#fff" d="M1943.97,937.93c-28.51-14.65-47.37-61.05-47.37-61.05l-0.02-0.04c-0.53-1.49-17.75-48.99-16.48-73.11
								c0.91-16.97,15.48-30.56,31.88-28.5c0.43,0.06,0.87,0.1,1.3,0.19c1.39,0.21,2.77,0.58,4.14,1.03
								c5.58,1.86,11.25,5.65,16.5,11.8c0,0,1.09,22.22,11.21,60.2c9.8,36.83,33.86,64.27,35.34,65.96
								c0.02,0.04,0.05,0.07,0.08,0.08C1990.48,938.37,1972.46,952.58,1943.97,937.93z"/><path d="M1965.12,947.3c-6.74,0-14.53-2.11-22.71-6.32c-28.78-14.79-47.5-59.21-48.92-62.66c-0.05-0.1-0.1-0.21-0.13-0.31
								c-1.85-5.13-17.94-50.51-16.68-74.45c0.52-9.57,4.98-18.54,12.26-24.62c6.74-5.63,15.09-8.15,23.47-7.1l0.42,0.06
								c0.4,0.05,0.8,0.1,1.18,0.19c1.25,0.18,2.8,0.56,4.49,1.13c6.55,2.18,12.61,6.5,18.01,12.82c0.49,0.58,0.78,1.3,0.82,2.05
								c0.01,0.22,1.21,22.37,11.1,59.49c9.06,34.05,30.32,59.67,34.56,64.53c0.3,0.31,0.55,0.67,0.71,1.08
								c4.94,11.87,3.83,22.32-3.06,28.67C1976.71,945.49,1971.36,947.29,1965.12,947.3z M1899.73,875.49
								c0.02,0.03,0.03,0.07,0.05,0.1c0.18,0.45,18.72,45.4,45.76,59.29l0,0c12.88,6.63,24.56,7.38,30.46,1.94
								c4.56-4.21,5.13-11.65,1.6-20.48c-4.99-5.78-26.5-32.14-35.78-67c-8.9-33.41-10.87-54.54-11.25-59.7
								c-4.37-4.9-9.16-8.24-14.23-9.92c-1.32-0.44-2.48-0.74-3.56-0.9c-0.41-0.08-0.6-0.1-0.78-0.12l-0.51-0.07
								c-6.43-0.8-12.89,1.17-18.15,5.57c-5.83,4.87-9.41,12.06-9.81,19.73C1882.56,822.22,1893.23,857.44,1899.73,875.49z"/><path fill="#fff" d="M1980.54,914.5c-0.03-0.01-0.05-0.04-0.08-0.08c-1.48-1.69-25.54-29.13-35.34-65.96
								c-10.12-37.99-11.21-60.2-11.21-60.2s-1.79-43.9,23.92-48.02c10.96-1.74,19.32,0.63,25.27,4.01
								c0.82,0.47,1.61,0.93,2.37,1.41c0.75,0.51,1.49,1.03,2.17,1.56c0.27,0.22,0.57,0.44,0.81,0.66c0.63,0.49,1.18,0.99,1.68,1.48
								c0.27,0.22,0.5,0.46,0.74,0.7c1.89,1.85,3.1,3.45,3.66,4.24l0.36,0.56c0,0-11.72,85.66,23.72,125.69
								c7,7.9,11.63,15.38,14.19,22.03C2043.22,929.5,2019.42,942.6,1980.54,914.5z"/><path d="M2018.17,933.7c-10.84,0-24.69-5.62-39.64-16.42l0.01-0.01c-0.25-0.18-0.49-0.39-0.69-0.63
								c-4.45-5.1-26.59-31.79-36.04-67.3c-10.1-37.9-11.28-59.99-11.33-60.91c-0.08-1.94-1.59-47.02,26.8-51.57
								c10.09-1.61,19.6-0.07,27.5,4.41c0.87,0.49,1.71,0.99,2.52,1.5c0.91,0.63,1.71,1.18,2.44,1.75c0.52,0.41,0.77,0.61,0.98,0.8
								c0.53,0.4,1.15,0.95,1.71,1.5c0.31,0.26,0.59,0.54,0.86,0.82c1.49,1.45,2.89,3.08,4.03,4.68l0.45,0.7
								c0.44,0.69,0.62,1.5,0.51,2.31c-0.12,0.84-11.09,84.58,22.89,122.95c6.97,7.87,11.96,15.63,14.82,23.07
								c4.72,12.21,3.2,22.48-4.17,28.16C2028.18,932.32,2023.55,933.7,2018.17,933.7z M1982.85,911.94
								c23.12,16.62,38.58,16.94,44.81,12.13c4.8-3.7,5.51-11.09,1.96-20.27c-2.53-6.57-7.22-13.83-13.56-20.99
								c-34.07-38.47-26.12-115.65-24.72-127.11c-0.77-1.02-1.77-2.15-2.85-3.2c-0.22-0.23-0.34-0.36-0.49-0.48
								c-0.09-0.08-0.18-0.16-0.27-0.24c-0.4-0.4-0.85-0.81-1.36-1.21l-0.57-0.46c-0.01-0.01-0.28-0.22-0.29-0.23
								c-0.59-0.46-1.28-0.94-1.98-1.41c-0.6-0.38-1.34-0.81-2.11-1.24c-6.64-3.77-14.4-4.98-23.05-3.61
								c-22.44,3.6-21.06,44.09-21.04,44.5c0.01,0.19,1.21,22.34,11.1,59.46C1957.4,881.26,1978.29,906.68,1982.85,911.94z"/><path fill="#fff" d="M2074.59,898.4c-4.4,8.62-15.23,16.16-41.78,4.17c-2.56-6.64-7.19-14.12-14.19-22.03
								c-35.44-40.03-23.72-125.69-23.72-125.69s7.04-31.42,27.29-31.83c21.53-0.44,41.3,24.91,41.3,24.91s-20.84,17.8-12.89,58.84
								c6,30.9,18.23,59.44,23.95,71.72C2077.47,884.8,2077.73,892.18,2074.59,898.4z"/><path d="M2056.59,912.27c-6.52,0-14.76-1.86-25.19-6.58c-0.82-0.37-1.46-1.05-1.79-1.89c-2.53-6.57-7.22-13.83-13.56-20.99
								c-36.07-40.74-25.04-124.86-24.55-128.43c0.36-1.68,7.94-34.33,30.62-34.79c0.21,0,0.42-0.01,0.63-0.01
								c22.72,0,42.6,25.15,43.44,26.23c1.13,1.44,0.92,3.52-0.47,4.71c-0.78,0.67-19.19,17.22-11.75,55.58
								c6.05,31.13,18.58,59.97,23.69,70.92c3.52,7.6,3.51,15.95-0.01,22.91c0,0,0,0.01-0.01,0.01
								C2074.4,906.29,2068.26,912.27,2056.59,912.27z M2035.47,900c13.15,5.73,29.59,9.5,36.06-3.15
								c2.53-5.01,2.5-11.33-0.09-16.92c-5.21-11.17-18.01-40.63-24.2-72.5c-6.67-34.42,6.05-53.3,11.62-59.65
								c-5.28-5.97-20.76-21.53-36.61-21.32c-17.31,0.34-23.96,28.87-24.02,29.16c-0.06,0.55-11.03,84.29,22.95,122.67
								C2027.74,885.68,2032.54,892.98,2035.47,900z M2074.59,898.4h0.03H2074.59z"/><path fill="#fff" d="M2064.15,853.61c0,0,14.42,45.22,38.3,40.15c24.69-5.24,5.63-35.63,6.56-52.24
								c0.93-16.6,10.75-34.24,10.75-34.24"/><path d="M2098.68,897.59c-23.81,0-37.2-41.09-37.79-42.94c-0.57-1.8,0.42-3.73,2.22-4.3c1.8-0.58,3.73,0.42,4.3,2.22
								c3.76,11.75,17.26,41.48,34.33,37.84c4.04-0.86,6.75-2.46,8.27-4.9c3.49-5.59,1.01-15.53-1.38-25.14
								c-1.72-6.91-3.35-13.43-3.04-19.04c0.96-17.19,10.76-34.97,11.17-35.72c0.92-1.65,3-2.24,4.66-1.33
								c1.65,0.92,2.24,3.01,1.33,4.66c-0.09,0.17-9.45,17.17-10.33,32.77c-0.25,4.57,1.25,10.61,2.85,17
								c2.75,10.99,5.58,22.37,0.55,30.42c-2.53,4.04-6.79,6.73-12.66,7.97C2101.63,897.43,2100.13,897.59,2098.68,897.59z"/><path fill="#8670c5" d="M1527.03,1279.36c0,0,101.47,5.12,156.42,12.22c104.12,13.45,259.34,179.66,259.34,179.66l-11.13-391.7
							l314.91-20.05c0,0,41.55,560.24-188.2,658.15c-213.01,90.78-493.84-194.83-493.84-194.83L1527.03,1279.36z"/><path d="M1942.79,1474.66c-1.85,0-3.37-1.47-3.42-3.33l-11.12-391.7c-0.05-1.84,1.37-3.4,3.21-3.52l314.91-20.05
							c1.87-0.12,3.51,1.31,3.64,3.2c0.12,1.89-1.31,3.52-3.2,3.64l-311.61,19.84l11.03,388.39c0.05,1.89-1.44,3.47-3.33,3.52
							C1942.85,1474.66,1942.82,1474.66,1942.79,1474.66z"/><path fill="#8670c5" d="M1527.03,1279.36c79.16,6.35,141.02,70.97,143.93,150.33l12.5,673.42
								c-0.04,72.85-679.19,72.51-679.15-0.34l-39.22-643.34c-6.41-80.97,50.17-153.4,130.29-166.77
								C1244.06,1279.48,1388.01,1274.93,1527.03,1279.36z"/><line x1="1670.95" x2="1683.45" y1="1429.69" y2="2103.11" fill="#fff"/><path d="M1683.45,2106.54c-1.86,0-3.39-1.49-3.43-3.36l-12.5-673.42c-0.03-1.89,1.47-3.45,3.36-3.49
								c1.83,0,3.45,1.47,3.49,3.36l12.5,673.42c0.03,1.89-1.47,3.45-3.36,3.49C1683.49,2106.54,1683.47,2106.54,1683.45,2106.54z"/><path d="M1171.99,1524.22l34.97,333.78c1.61,15.38,15.56,26.43,30.9,24.47l149.76-19.12c13.86-1.77,24.2-13.63,24.07-27.6
								l-3.08-330.43c-0.15-16.06-13.95-28.59-29.95-27.2l-181.66,15.77C1181.67,1495.22,1170.39,1508.89,1171.99,1524.22z"/><path fill="#fff" d="M1109.61,1838.76l26.98-108.96l-2.67-68.31c-1.3-17.05,12.18-31.6,29.28-31.6h0
								c15.4,0,28.18,11.88,29.29,27.24c3.3,45.64,7.11,99.7,34.6,101.39c96.92,5.97,166.92-155.46,189.49-162.62
								s33.31,21.13,20.42,49.79c0,0,14.61-21.81,30.85-8.24c14.28,11.94-9,50.15-9,50.15s15.16-18.39,28.3-2.15
								c10.44,12.9-5.73,39.04-5.73,39.04s32.48-12.54,23.4,25.91c-6.67,28.26-86.09,118.45-126.57,154.27
								c-40.48,35.82-148.06,58.03-148.06,58.03L1109.61,1838.76z"/><path d="M1230.2,1966.12c-0.92,0-1.8-0.37-2.46-1.04l-120.6-123.94c-0.83-0.85-1.15-2.06-0.87-3.21l26.87-108.49l-2.65-67.82
								c-0.69-8.95,2.47-17.98,8.65-24.66c6.19-6.67,14.95-10.5,24.06-10.5c17.11,0,31.47,13.36,32.7,30.42l0.03,0.47
								c3.1,42.88,6.96,96.25,31.37,97.75c66.46,3.98,121.72-75.42,154.73-122.94c16.92-24.36,26.1-37.18,33.51-39.54
								c9.06-2.87,17.2-0.91,22.93,5.52c7.13,8.01,9.23,21.25,6.16,35.34c2.75-1.79,5.93-3.23,9.44-3.74
								c5.62-0.8,10.99,0.89,15.97,5.06c10.76,9,4.55,28.53-1.5,41.71c2.03-0.75,4.16-1.17,6.54-1.21
								c5.52,0.03,10.48,2.71,14.73,7.97c8.32,10.29,2.58,26.81-1.81,36.11c5-0.66,11.42-0.38,16.1,3.7
								c5.88,5.12,7.24,14.58,4.05,28.09c-7.04,29.82-88.85,121.73-127.63,156.05c-40.7,36.01-145.21,57.9-149.64,58.82
								C1230.66,1966.1,1230.43,1966.12,1230.2,1966.12z M1113.39,1837.73l117.95,121.22c14.29-3.12,108.18-24.57,144.65-56.85
								c41.56-36.77,119.25-126,125.5-152.49c2.52-10.68,1.87-18.06-1.87-21.34c-4.61-4.04-13.81-1.79-16.97-0.58
								c-1.37,0.52-2.93,0.12-3.86-1.02c-0.94-1.13-1.05-2.73-0.28-3.98c4.13-6.71,13.27-26.08,5.98-35.09
								c-2.94-3.63-6.01-5.41-9.42-5.43c-0.02,0-0.05,0-0.07,0c-7.1,0-13.45,7.53-13.52,7.61c-1.14,1.38-3.16,1.64-4.63,0.6
								c-1.46-1.04-1.87-3.03-0.94-4.57c5.64-9.26,19.53-37.55,9.73-45.74c-3.46-2.9-6.91-4.05-10.58-3.54
								c-8.49,1.2-15.16,10.96-15.23,11.05c-0.99,1.47-2.96,1.94-4.51,1.08c-1.55-0.87-2.19-2.77-1.46-4.4
								c7.22-16.03,7-33.13-0.52-41.57c-3.88-4.36-9.32-5.59-15.74-3.55c-5.53,1.76-17.4,18.83-29.96,36.92
								c-33.83,48.7-90.45,130.18-160.78,125.86c-30.39-1.87-34.31-56.18-37.78-104.1l-0.03-0.46
								c-0.97-13.5-12.34-24.07-25.87-24.07c-7.31,0-14.06,2.95-19.03,8.31c-4.97,5.36-7.4,12.33-6.84,19.61l2.68,68.43
								c0.01,0.32-0.02,0.65-0.1,0.96L1113.39,1837.73z"/><path fill="#fff" d="M1437.01,1645.69c0,0-12.36,29.55-24.54,45.31s-68.78,82.21-68.78,82.21"/><path d="M1343.69,1776.63c-0.79,0-1.58-0.27-2.22-0.82c-1.44-1.23-1.61-3.39-0.39-4.83c0.57-0.66,56.68-66.56,68.67-82.08
								c11.76-15.22,23.97-44.25,24.09-44.54c0.73-1.75,2.74-2.57,4.48-1.84c1.75,0.73,2.57,2.74,1.84,4.48
								c-0.51,1.22-12.67,30.15-24.99,46.09c-12.09,15.65-66.56,79.62-68.88,82.33C1345.62,1776.22,1344.66,1776.63,1343.69,1776.63
								z"/><path fill="#fff" d="M1458.86,1687.6c0,0-18.09,36-35.46,60c-17.37,24-48.54,53.91-48.54,53.91"/><path d="M1374.86,1804.93c-0.9,0-1.8-0.35-2.47-1.05c-1.31-1.36-1.26-3.53,0.1-4.84c0.31-0.3,31.14-29.98,48.13-53.44
								c17.01-23.51,34.99-59.18,35.17-59.53c0.85-1.69,2.9-2.38,4.6-1.52c1.69,0.85,2.37,2.91,1.52,4.6
								c-0.18,0.36-18.41,36.52-35.75,60.47c-17.36,23.98-47.66,53.14-48.94,54.37C1376.57,1804.61,1375.71,1804.93,1374.86,1804.93
								z"/><path fill="#fff" d="M1481.42,1724.49c0,0-24.41,38.15-35.87,54.63s-52.96,54.63-52.96,54.63"/><path d="M1392.59,1837.17c-0.92,0-1.85-0.37-2.52-1.11c-1.28-1.39-1.19-3.56,0.2-4.84c0.41-0.38,41.35-38.08,52.47-54.06
								c11.3-16.23,35.56-54.13,35.8-54.52c1.02-1.59,3.14-2.06,4.73-1.04c1.59,1.02,2.06,3.14,1.04,4.73
								c-0.25,0.38-24.58,38.39-35.95,54.74c-11.55,16.59-51.75,53.62-53.46,55.19C1394.25,1836.87,1393.42,1837.17,1392.59,1837.17
								z"/><path fill="#8670c5" d="M1107.78,1291.58c0,0-155.58-7.85-233.74,90.82c-42.93,54.2-404.19,618.99-156.31,760.84
							s580.29-157.13,580.29-157.13l-206.68-214.33l-203.1,140.77l179.1-419.91L1107.78,1291.58z"/><path d="M866.72,2184.52c-55.38,0-106-12.74-150.69-38.32c-1.64-0.94-2.21-3.03-1.27-4.68c0.94-1.64,3.03-2.21,4.68-1.27
							c126.73,72.52,276.52,26.18,379.87-25.46c101.14-50.54,178.67-115.82,193.77-128.9l-202.17-209.64l-200.71,139.12
							c-1.25,0.87-2.92,0.81-4.11-0.16c-1.18-0.97-1.59-2.6-0.99-4l179.1-419.91c0.74-1.74,2.77-2.54,4.5-1.81
							c1.74,0.74,2.55,2.76,1.81,4.5l-174.44,408.98l193.34-134.01c1.37-0.95,3.25-0.77,4.42,0.44l206.68,214.33
							c0.65,0.67,0.99,1.57,0.96,2.5c-0.03,0.93-0.44,1.81-1.13,2.42c-0.84,0.75-84.76,75.71-197.95,132.28
							C1017.64,2163.26,938.21,2184.52,866.72,2184.52z"/><path d="M1066.13,965.43c0,0-77.39-90-35.74-141.99s115.34-1.2,115.34-1.2l-26.34,92.47l-31.92,63.49"/><path fill="#fff" d="M1137.81,948.41c0,0-58.64-60.07-99.08-4.84c-40.43,55.22,22.66,120.24,88.12,125.61"/><path d="M1126.86,1072.61c-0.09,0-0.19,0-0.28-0.01c-41.19-3.39-82.22-30.21-97.55-63.78c-10.48-22.95-8.01-46.84,6.95-67.28
								c11.15-15.23,24.73-23.51,40.36-24.62c32.83-2.38,62.67,27.81,63.93,29.1c1.32,1.35,1.29,3.52-0.06,4.84
								c-1.36,1.32-3.53,1.3-4.84-0.05c-0.29-0.29-28.97-29.14-58.57-27.05c-13.52,0.97-25.4,8.31-35.3,21.83
								c-17.22,23.51-12.9,45.82-6.24,60.38c14.37,31.46,53.01,56.6,91.88,59.79c1.88,0.16,3.29,1.81,3.13,3.7
								C1130.12,1071.25,1128.63,1072.61,1126.86,1072.61z"/><path fill="#fff" d="M1427.63,1286.73c8.53,78.66-188.47,113.22-202.04,5.25l-15.95-227.63l210.46,33.07L1427.63,1286.73z"/><path d="M1319.45,1363.54c-46.45,0-90.94-20.91-97.25-71.13l-15.97-227.82c-0.07-1.04,0.33-2.06,1.1-2.76
							c0.77-0.71,1.82-1.03,2.85-0.86l210.46,33.07c1.62,0.25,2.83,1.62,2.89,3.25l7.53,189.2c4.43,41.76-44.59,70.3-93.02,75.97
							C1331.86,1363.17,1325.63,1363.54,1319.45,1363.54z M1213.36,1068.4l15.65,223.34c6.55,52.07,59.11,69.66,108.23,63.9
							c45.2-5.29,91.05-31.11,86.99-68.54c-0.01-0.08-0.01-0.15-0.02-0.23l-7.42-186.5L1213.36,1068.4z"/><path fill="#fff" d="M1355.51,1211.73c-13.72,5.15-28.13,8.56-43.1,9.97c-115.85,10.85-221.25-102.99-232.6-224.15
								c-11.35-121.17,75.64-203.77,191.49-214.63c115.85-10.85,216.68,54.15,228.03,175.32c6.43,68.64-17.23,140.57-60.01,192.01"/><path d="M1296.86,1225.85c-50.51,0-100.52-22.46-142.37-64.3c-44.01-44.01-72.48-103.67-78.11-163.68
								c-10.94-116.81,69.07-206.6,194.58-218.36c58.58-5.46,113.8,8.29,155.54,38.8c44.34,32.4,70.7,80.68,76.22,139.61
								c6.4,68.33-16.32,141.05-60.79,194.52c-1.2,1.45-3.36,1.65-4.82,0.44c-1.45-1.21-1.65-3.37-0.44-4.82
								c43.32-52.1,65.47-122.94,59.23-189.5c-5.33-56.92-30.72-103.51-73.44-134.72c-40.39-29.52-93.96-42.86-150.86-37.5
								c-121.5,11.38-198.97,98.11-188.4,210.89c10.63,113.48,110.8,232.16,228.87,221.06c14.33-1.34,28.53-4.62,42.22-9.76
								c1.77-0.66,3.75,0.23,4.41,2c0.66,1.77-0.23,3.75-2,4.41c-14.26,5.35-29.06,8.77-43.99,10.17
								C1307.44,1225.6,1302.14,1225.85,1296.86,1225.85z"/><path d="M1516.35,952.57c-15.55,61.05-67.49-4.22-67.49-4.22s-9.53,30.56-27.56,28.72c-22.99-2.32-9.79-53.07-8.05-99.57
							c-26.95-13.36-49.01-36.1-62.5-63.02c-4.35,8.66-10.69,16.2-18.77,21.93c-12.08,8.63-26.05,14.17-39.93,19.42
							c-34.71,13.11-70.3,24.89-107.2,29.08c-36.87,4.15-75.45,0.26-108.49-16.71c-33.01-17-59.7-48.21-65.95-84.82
							c-4.67-27.5,3.32-57.96,24.31-76.32c21.03-18.39,55.45-21.35,76.8-3.41c11.11-36.71,23.64-75.61,53.26-99.99
							c26.89-22.09,63.53-28.27,98.34-28.53c75.29-0.58,150.54,23.38,211.63,67.4c12.69,9.11,24.96,19.29,33.65,32.27
							c8.66,13.01,13.46,29.24,10.05,44.5c-3.06,13.69-13.69,25.95-27.11,29.3C1503.86,758.17,1553.51,806.64,1516.35,952.57z"/><path fill="#fff" d="M1436.65,967.99c0,0,45.58-89.61,94.76-45.35c49.19,44.26,2.35,118.27-58.54,136.31"/><path d="M1472.87,1062.36c-1.48,0-2.84-0.96-3.28-2.45c-0.54-1.81,0.5-3.72,2.31-4.26c36.12-10.7,67.68-42.11,75.05-74.69
								c3.41-15.07,3.08-36.98-17.82-55.79c-10.29-9.26-21.15-12.92-32.31-10.83c-31.66,5.88-56.86,54.69-57.11,55.19
								c-0.86,1.69-2.93,2.36-4.61,1.5c-1.69-0.86-2.36-2.92-1.5-4.6c1.09-2.13,26.97-52.31,61.96-58.81
								c13.37-2.49,26.2,1.72,38.15,12.47c18.23,16.41,25.31,38.57,19.92,62.39c-7.88,34.85-41.43,68.38-79.78,79.74
								C1473.52,1062.32,1473.19,1062.36,1472.87,1062.36z"/><g><path fill="#fff" d="M1485.61,956.36c10.3,1.84,19.43,9.27,23.32,18.99c3.89,9.72,2.41,21.4-3.77,29.84"/><path d="M1505.16,1008.61c-0.7,0-1.41-0.21-2.02-0.66c-1.53-1.12-1.86-3.26-0.74-4.79c5.49-7.5,6.81-17.92,3.35-26.54
								c-3.45-8.63-11.6-15.26-20.74-16.89c-1.86-0.33-3.1-2.11-2.77-3.97s2.09-3.11,3.97-2.77c11.42,2.04,21.59,10.32,25.9,21.09
								c4.31,10.76,2.67,23.77-4.19,33.13C1507.26,1008.13,1506.21,1008.61,1505.16,1008.61z"/></g><g><path fill="#fff" d="M1311.32,912.77c7.23-4.88,16.02-7.39,24.49-7.01c8.47,0.38,16.58,3.66,22.59,9.13"/><path d="M1358.4,918.32c-0.82,0-1.65-0.29-2.3-0.89c-5.46-4.97-12.72-7.89-20.44-8.24c-7.82-0.35-15.75,1.93-22.42,6.43
						c-1.57,1.05-3.7,0.64-4.76-0.92c-1.06-1.57-0.64-3.7,0.92-4.76c7.88-5.31,17.3-7.96,26.56-7.59
						c9.32,0.42,18.11,3.98,24.74,10.02c1.4,1.27,1.5,3.44,0.23,4.84C1360.26,917.94,1359.33,918.32,1358.4,918.32z"/></g><g><path d="M1343.07,976.66c9.01-1.61,14.45-13.34,12.15-26.25c-2.3-12.9-11.46-22.11-20.45-20.45
						c-9.01,1.61-14.45,13.34-12.15,26.24C1324.92,969.11,1334.13,978.29,1343.07,976.66z"/></g><g><path fill="#fff" d="M1151.05,947.45c7.23-4.88,16.02-7.39,24.49-7.01c8.47,0.38,16.58,3.66,22.59,9.13"/><path d="M1198.14,952.99c-0.82,0-1.65-0.29-2.3-0.89c-5.46-4.96-12.71-7.89-20.44-8.24c-7.82-0.35-15.76,1.93-22.42,6.43
						c-1.57,1.05-3.7,0.65-4.76-0.92c-1.06-1.57-0.65-3.7,0.92-4.76c7.87-5.31,17.3-7.96,26.56-7.59
						c9.32,0.42,18.11,3.98,24.74,10.02c1.4,1.27,1.5,3.44,0.23,4.84C1199.99,952.62,1199.07,952.99,1198.14,952.99z"/></g><g><path d="M1182.81,1011.33c9.01-1.61,14.45-13.34,12.15-26.25c-2.3-12.9-11.46-22.11-20.45-20.45
						c-9.01,1.61-14.45,13.34-12.15,26.24C1164.65,1003.78,1173.86,1012.97,1182.81,1011.33z"/></g><g><path fill="#fff" d="M1258.73,959.53c3.89,26.79-2.67,54.97-18,77.29c-3.2,4.66-6.94,10.3-4.68,15.49
							c1.7,3.91,6.14,5.7,10.16,7.11c9.25,3.26,18.51,6.51,27.76,9.77"/><path d="M1273.97,1072.61c-0.38,0-0.76-0.06-1.14-0.19l-27.76-9.77c-4.72-1.66-9.93-3.85-12.16-8.98
							c-3.07-7.04,1.79-14.11,5-18.79c14.85-21.62,21.2-48.9,17.43-74.86c-0.27-1.87,1.02-3.61,2.9-3.88
							c1.87-0.31,3.61,1.02,3.88,2.9c4.02,27.64-2.75,56.7-18.56,79.72c-3.12,4.54-5.8,8.89-4.36,12.18
							c1.13,2.6,4.65,4.02,8.15,5.25l27.76,9.77c1.78,0.63,2.72,2.58,2.09,4.37C1276.7,1071.73,1275.38,1072.61,1273.97,1072.61z"/></g><g><path d="M1286.74,1147c-8.42,0-16.84-1.28-24.88-3.86c-1.8-0.58-2.79-2.51-2.21-4.31c0.58-1.8,2.5-2.78,4.31-2.21
						c18.01,5.8,38.14,4.43,55.22-3.75c17.07-8.18,30.74-23.01,37.52-40.68c0.68-1.76,2.65-2.64,4.43-1.97
						c1.77,0.68,2.65,2.66,1.97,4.43c-7.4,19.29-22.32,35.47-40.96,44.4C1311.11,1144.32,1298.92,1147,1286.74,1147z"/></g><g><path fill="#c2f963" d="M888.6,1275.76h-624.2c-6.06,0-10.98-4.92-10.98-10.98v-153.44c0-6.06,4.92-10.98,10.98-10.98h624.2
					c6.06,0,10.98,4.92,10.98,10.98v153.44C899.58,1270.84,894.67,1275.76,888.6,1275.76z"/><path d="M861.98,1279.18H291.03c-22.62,0-41.03-18.41-41.03-41.03v-100.19c0-22.62,18.41-41.03,41.03-41.03h570.95
					c22.62,0,41.03,18.41,41.03,41.03v100.19C903.01,1260.78,884.6,1279.18,861.98,1279.18z M291.03,1103.79
					c-18.85,0-34.18,15.33-34.18,34.18v100.19c0,18.84,15.33,34.18,34.18,34.18h570.95c18.84,0,34.18-15.33,34.18-34.18v-100.19
					c0-18.84-15.33-34.18-34.18-34.18H291.03z"/></g><g><path fill="#f6538a" d="M816.21,696.64v255.64c0,43.81-35.52,79.32-79.32,79.32H422.84c-43.81,0-79.32-35.52-79.32-79.32V696.64
					c0-43.81,35.52-79.29,79.32-79.29h314.04C780.69,617.35,816.21,652.83,816.21,696.64z"/></g><g><path fill="#e81868" d="M816.21,696.64v255.64c0,43.81-35.52,79.32-79.32,79.32H422.84c-38.57,0-70.73-27.54-77.85-64.05
					c14.52,16.47,35.79,26.85,59.49,26.85h58.43c184.99,0,334.93-149.95,334.93-334.93c0-5.24-0.51-10.34-1.47-15.31
					C808.71,658.14,816.21,676.5,816.21,696.64z"/></g><g><path d="M736.88,1035.03H422.84c-45.63,0-82.75-37.12-82.75-82.75V696.64c0-45.61,37.12-82.71,82.75-82.71h314.04
					c45.63,0,82.75,37.1,82.75,82.71v255.65C819.63,997.91,782.51,1035.03,736.88,1035.03z M422.84,620.77
					c-41.85,0-75.9,34.03-75.9,75.86v255.65c0,41.85,34.05,75.9,75.9,75.9h314.04c41.85,0,75.9-34.05,75.9-75.9V696.64
					c0-41.83-34.05-75.86-75.9-75.86H422.84z"/></g><g><path fill="#fff" d="M579.86,913.07c-49.18,0-89.2-40.01-89.2-89.19c0-7.57,6.13-13.7,13.7-13.7c7.57,0,13.7,6.13,13.7,13.7
						c0,34.07,27.72,61.79,61.8,61.79c7.57,0,13.7,6.13,13.7,13.7S587.43,913.07,579.86,913.07z"/><path fill="#fff" d="M655.36,837.58c-7.57,0-13.7-6.13-13.7-13.7c0-34.08-27.72-61.8-61.79-61.8c-7.57,0-13.7-6.13-13.7-13.7
						c0-7.57,6.13-13.7,13.7-13.7c49.18,0,89.19,40.01,89.19,89.2C669.06,831.45,662.92,837.58,655.36,837.58z"/><path fill="#fff" d="M583.52,787.41c-4.21,0-8.36-1.93-11.04-5.58l-21.83-29.65c-2.15-2.93-3.06-6.59-2.51-10.18
						c0.55-3.59,2.5-6.82,5.42-8.97l29.65-21.82c6.09-4.49,14.67-3.18,19.16,2.91c4.49,6.09,3.18,14.67-2.91,19.16l-18.62,13.7
						l13.71,18.62c4.49,6.09,3.18,14.67-2.91,19.16C589.18,786.54,586.34,787.41,583.52,787.41z"/><path fill="#fff" d="M561.69,936.56c-4.21,0-8.36-1.93-11.04-5.58c-4.49-6.09-3.18-14.67,2.91-19.16l18.62-13.7l-13.71-18.62
						c-4.49-6.09-3.18-14.67,2.91-19.16c6.09-4.49,14.67-3.18,19.16,2.91l21.83,29.65c4.49,6.09,3.18,14.67-2.91,19.16l-29.65,21.83
						C567.35,935.69,564.51,936.56,561.69,936.56z"/></g><g><path fill="#fff" d="M361.93,1233.3v-90.34h38.39c9.65,0,16.67,0.81,21.04,2.43c4.37,1.62,7.88,4.51,10.51,8.66
						c2.63,4.15,3.94,8.9,3.94,14.24c0,6.78-1.99,12.38-5.98,16.79c-3.98,4.42-9.94,7.2-17.87,8.35c3.95,2.3,7.2,4.83,9.77,7.58
						c2.57,2.76,6.03,7.64,10.39,14.67l11.03,17.62h-21.81l-13.19-19.66c-4.68-7.02-7.89-11.45-9.61-13.28
						c-1.73-1.83-3.55-3.08-5.48-3.76c-1.93-0.68-4.99-1.02-9.18-1.02h-3.7v37.71H361.93z M380.17,1181.17h13.5
						c8.75,0,14.21-0.37,16.39-1.11c2.18-0.74,3.88-2.01,5.11-3.82c1.23-1.81,1.85-4.07,1.85-6.78c0-3.04-0.81-5.49-2.43-7.37
						c-1.62-1.87-3.91-3.05-6.87-3.54c-1.48-0.2-5.91-0.31-13.31-0.31h-14.24V1181.17z"/><path fill="#fff" d="M453,1233.3v-90.34h66.98v15.28h-48.74v20.03h45.35v15.22h-45.35v24.59h50.47v15.22H453z"/><path fill="#fff" d="M532.55,1203.91l17.75-1.73c1.07,5.96,3.23,10.34,6.5,13.12c3.27,2.8,7.67,4.19,13.22,4.19
						c5.87,0,10.3-1.24,13.28-3.73c2.98-2.48,4.47-5.39,4.47-8.72c0-2.13-0.63-3.95-1.88-5.45c-1.25-1.5-3.44-2.81-6.56-3.91
						c-2.14-0.74-7-2.05-14.6-3.95c-9.78-2.42-16.64-5.4-20.58-8.93c-5.55-4.97-8.32-11.03-8.32-18.18c0-4.6,1.3-8.9,3.91-12.91
						c2.61-4,6.37-7.05,11.28-9.15c4.91-2.09,10.83-3.14,17.78-3.14c11.34,0,19.87,2.49,25.6,7.46c5.73,4.97,8.74,11.6,9.03,19.9
						l-18.24,0.8c-0.78-4.64-2.46-7.98-5.02-10.01c-2.57-2.03-6.42-3.05-11.56-3.05c-5.3,0-9.45,1.09-12.45,3.27
						c-1.93,1.4-2.9,3.26-2.9,5.61c0,2.14,0.9,3.97,2.71,5.49c2.3,1.93,7.89,3.94,16.76,6.04c8.87,2.1,15.44,4.26,19.69,6.5
						c4.25,2.24,7.58,5.3,9.98,9.18c2.4,3.88,3.61,8.68,3.61,14.39c0,5.17-1.44,10.02-4.31,14.54c-2.87,4.52-6.94,7.88-12.2,10.08
						c-5.26,2.19-11.81,3.29-19.66,3.29c-11.42,0-20.19-2.64-26.31-7.92S533.74,1214.01,532.55,1203.91z"/><path fill="#fff" d="M621.35,1233.3v-90.34h66.98v15.28h-48.74v20.03h45.35v15.22h-45.35v24.59h50.47v15.22H621.35z"/><path fill="#fff" d="M725.85,1233.3v-75.05h-26.8v-15.28h71.79v15.28h-26.74v75.05H725.85z"/></g><g><path fill="#d4e8e8" d="M2234.15,679.02h-664.86c-6.86,0-12.42-5.56-12.42-12.42V454.29c0-6.86,5.56-12.42,12.42-12.42h664.86
						c6.86,0,12.42,5.56,12.42,12.42V666.6C2246.57,673.46,2241.01,679.02,2234.15,679.02z"/></g><g><path fill="#fff" d="M1639.47,608.52l14.85-36.14l-36.47,14.84l-7.1-25.81l39.05-5.16l-30.98-24.2l19.04-19.04l23.88,31.3
							l5.16-38.72l25.49,6.78l-14.84,36.14l36.47-14.84l7.1,25.82l-39.05,5.16l30.98,24.2l-19.04,19.04l-23.88-31.3l-5.16,38.72
							L1639.47,608.52z"/><path fill="#fff" d="M1796.66,608.52l14.85-36.14l-36.47,14.84l-7.1-25.81l39.05-5.16l-30.98-24.2l19.04-19.04l23.88,31.3
							l5.16-38.72l25.49,6.78l-14.84,36.14l36.47-14.84l7.1,25.82l-39.05,5.16l30.98,24.2l-19.04,19.04l-23.88-31.3l-5.16,38.72
							L1796.66,608.52z"/><path fill="#fff" d="M1953.85,608.52l14.85-36.14l-36.47,14.84l-7.1-25.81l39.05-5.16l-30.98-24.2l19.04-19.04l23.88,31.3
							l5.16-38.72l25.49,6.78l-14.84,36.14l36.47-14.84l7.1,25.82l-39.05,5.16l30.98,24.2l-19.04,19.04l-23.88-31.3l-5.16,38.72
							L1953.85,608.52z"/><path fill="#fff" d="M2111.05,608.52l14.85-36.14l-36.47,14.84l-7.1-25.81l39.05-5.16l-30.98-24.2l19.04-19.04l23.88,31.3
							l5.16-38.72l25.49,6.78l-14.84,36.14l36.47-14.84l7.1,25.82l-39.05,5.16l30.98,24.2l-19.04,19.04l-23.88-31.3l-5.16,38.72
							L2111.05,608.52z"/></g><g><polygon fill="#f6538a" points="1816.31 1856.85 2080.4 2044.28 1923.74 2187.7"/></g><g><polygon fill="#d4e8e8" points="1800.66 1903.84 1840.58 2030.91 1787.37 2025.7"/></g><g><polygon fill="#fff" points="2020.27 1796.59 1865.8 1824.95 1993.86 1934.72"/><path d="M1993.86,1938.14c-0.81,0-1.6-0.28-2.23-0.82l-128.07-109.77c-1-0.86-1.42-2.22-1.08-3.5
						c0.34-1.27,1.39-2.24,2.69-2.48l154.47-28.36c1.13-0.19,2.26,0.15,3.05,0.96c0.8,0.8,1.14,1.94,0.93,3.05l-26.41,138.13
						c-0.23,1.2-1.08,2.19-2.23,2.59C1994.63,1938.08,1994.25,1938.14,1993.86,1938.14z M1873.48,1827.02l118.13,101.25
						l24.36-127.41L1873.48,1827.02z"/></g><g><path d="M1001.07,505.47c-0.01,0-0.03,0-0.04,0c-1.89-0.02-3.4-1.58-3.38-3.47c0.45-35.02,14.01-70.16,37.2-96.4
			c23.19-26.25,56.38-44.03,91.08-48.8c30.2-4.15,59.05,1.69,81.22,16.44c5.55,3.69,10.61,7.96,15.11,12.68
			c36.22-32.95,81.31-56.48,129.04-67.06c54.84-12.14,113.75-7.32,165.88,13.59c1.76,0.7,2.61,2.7,1.9,4.45
			c-0.7,1.76-2.7,2.62-4.45,1.9c-50.86-20.4-108.34-25.11-161.84-13.25c-46.61,10.33-90.63,33.32-125.98,65.5
			c12.9,15.75,20.01,35.38,18.99,54.51c-1,18.7-13.02,38.67-31.42,39.69c-7.71,0.46-15.17-2.68-21.15-8.73
			c-7.52-7.61-11.75-18.89-11.04-29.45c1.27-18.8,13.77-34.37,24.51-45.83c3.42-3.65,6.94-7.2,10.56-10.66
			c-4.14-4.32-8.8-8.24-13.9-11.64c-20.78-13.83-47.94-19.28-76.5-15.36c-33.1,4.55-64.76,21.51-86.88,46.55
			c-22.12,25.03-35.05,58.55-35.48,91.95C1004.47,503.96,1002.94,505.47,1001.07,505.47z M1221.78,395.72
			c-3.46,3.31-6.83,6.72-10.1,10.2c-9.97,10.63-21.55,24.96-22.67,41.6c-0.58,8.66,2.89,17.92,9.07,24.17
			c3.24,3.28,8.59,7.07,15.89,6.71c14.56-0.81,24.12-17.53,24.96-33.22C1239.86,427.89,1233.44,410.1,1221.78,395.72z"/></g></svg>