<svg xmlns="http://www.w3.org/2000/svg" xmlns:xlink="http://www.w3.org/1999/xlink" enable-background="new 0 0 1200 900" viewBox="0 0 1200 900"><path fill="#edf5fc" d="M264.329 650.838c4.455 12.792 1.649 28.499-6.784 38.447h762.51c-5.335-23.788.393-49.175 6.38-73.121 11.186-44.774 23.23-90.543 18.548-136.46-4.69-45.907-30.03-92.828-73.182-109.184-53.51-20.272-119.754 10.053-168.158-20.475-47.483-29.956-49.427-100.54-88.848-140.514-27.736-28.123-69.515-36.563-108.88-39.835-96.412-7.998-194.677 7.188-284.179 43.917-22.65 9.298-48.46 25.967-46.23 50.349 2.949 32.168 49.732 39.826 64.76 68.419 11.51 21.875-.082 50.22-19.617 65.36-19.545 15.139-44.857 20.188-69.23 24.317-24.363 4.118-49.658 8.08-70.326 21.635-22.115 14.514-36.812 39.743-38.526 66.134-1.705 26.39 9.61 53.307 29.662 70.547 14.974 12.873 33.817 20.143 51.187 29.542s34.417 22.272 40.913 40.922z"/><path fill="#9bb2e1" d="M386.89 520.337a.49.49 0 0 1-.153-.024 157.36 157.36 0 0 1-5.697-1.94.5.5 0 1 1 .34-.94c1.867.675 3.771 1.324 5.662 1.928a.5.5 0 0 1-.153.976zm-11.284-4.081a.498.498 0 0 1-.187-.037 163.008 163.008 0 0 1-5.536-2.361.5.5 0 1 1 .41-.912 162.08 162.08 0 0 0 5.5 2.346.5.5 0 0 1-.187.964zm-10.946-4.91a.501.501 0 0 1-.222-.052 165.177 165.177 0 0 1-5.345-2.76.5.5 0 1 1 .474-.88c1.743.94 3.531 1.863 5.315 2.743a.5.5 0 0 1-.222.948zm-10.559-5.694a.493.493 0 0 1-.253-.07 169.988 169.988 0 0 1-5.135-3.135.5.5 0 0 1 .537-.844 169.935 169.935 0 0 0 5.104 3.117.5.5 0 0 1-.253.932zm-10.127-6.435a.499.499 0 0 1-.283-.087 175.34 175.34 0 0 1-4.9-3.49.5.5 0 1 1 .594-.805c1.6 1.182 3.24 2.35 4.873 3.47a.5.5 0 0 1-.284.912zm-9.648-7.128a.495.495 0 0 1-.31-.108 172.83 172.83 0 0 1-4.647-3.824.5.5 0 0 1 .648-.76 173.278 173.278 0 0 0 4.62 3.8.5.5 0 0 1-.311.892zm-9.13-7.782a.499.499 0 0 1-.338-.131 175.095 175.095 0 0 1-4.372-4.135.5.5 0 1 1 .7-.715 175.706 175.706 0 0 0 4.346 4.112.5.5 0 0 1-.337.869zm-8.573-8.394a.5.5 0 0 1-.362-.155 175.12 175.12 0 0 1-4.076-4.427.5.5 0 0 1 .748-.664 173.903 173.903 0 0 0 4.052 4.4.5.5 0 0 1-.362.846zm-7.974-8.966a.497.497 0 0 1-.385-.181 176.245 176.245 0 0 1-3.76-4.698.5.5 0 1 1 .792-.611 177.823 177.823 0 0 0 3.738 4.671.5.5 0 0 1-.385.819zm-7.33-9.498a.499.499 0 0 1-.407-.208 172.889 172.889 0 0 1-3.422-4.95.5.5 0 1 1 .832-.554 172.242 172.242 0 0 0 3.402 4.92.5.5 0 0 1-.406.792zm-6.65-9.988a.5.5 0 0 1-.426-.238 165.797 165.797 0 0 1-3.062-5.18.5.5 0 1 1 .87-.493 165.183 165.183 0 0 0 3.044 5.149.5.5 0 0 1-.426.762zm-5.92-10.435a.5.5 0 0 1-.443-.27 165.466 165.466 0 0 1-2.68-5.387.5.5 0 1 1 .903-.429 167.518 167.518 0 0 0 2.664 5.355.5.5 0 0 1-.443.73zm-5.144-10.837a.5.5 0 0 1-.459-.302 163.57 163.57 0 0 1-2.275-5.57.5.5 0 1 1 .932-.361 165.63 165.63 0 0 0 2.261 5.535.5.5 0 0 1-.459.698zm-4.326-11.188a.5.5 0 0 1-.473-.337 158.567 158.567 0 0 1-1.849-5.728.5.5 0 1 1 .958-.289 156.593 156.593 0 0 0 1.837 5.691.5.5 0 0 1-.473.663zm-3.469-11.485a.5.5 0 0 1-.483-.374 158.06 158.06 0 0 1-1.412-5.85.5.5 0 1 1 .976-.216c.426 1.924.898 3.88 1.403 5.813a.5.5 0 0 1-.484.627zm-2.6-11.712a.5.5 0 0 1-.491-.41 170.37 170.37 0 0 1-.98-5.937.5.5 0 0 1 .99-.145c.29 1.974.617 3.96.974 5.902a.5.5 0 0 1-.493.59zm591.615-5.56a.5.5 0 1 1 0-1c1.98 0 3.992-.03 5.982-.086.268.001.507.21.515.486a.5.5 0 0 1-.485.514c-2.001.057-4.024.085-6.012.086zm-5.999-.083h-.015a214.124 214.124 0 0 1-6.007-.257.5.5 0 0 1 .056-.998c1.97.112 3.983.198 5.98.255a.5.5 0 0 1-.014 1zm17.99-.257a.5.5 0 0 1-.028-.999c1.973-.111 3.981-.252 5.97-.418a.492.492 0 0 1 .54.456.5.5 0 0 1-.456.54c-1.998.167-4.016.309-5.997.42l-.029.001zm-29.969-.428c-.014 0-.029 0-.043-.002-1.99-.171-4.003-.375-5.984-.605a.5.5 0 0 1-.44-.554.507.507 0 0 1 .555-.439c1.971.229 3.974.431 5.954.602a.5.5 0 0 1-.042.998zm41.92-.576a.5.5 0 0 1-.054-.997c1.97-.22 3.967-.47 5.937-.745a.5.5 0 0 1 .139.99c-1.98.277-3.986.528-5.965.75a.55.55 0 0 1-.057.002zm-53.837-.807a.462.462 0 0 1-.074-.005c-1.981-.29-3.98-.613-5.937-.96a.5.5 0 1 1 .174-.984c1.949.344 3.936.666 5.908.954a.5.5 0 0 1-.071.995zm65.717-.848a.5.5 0 0 1-.08-.993c1.94-.324 3.921-.682 5.889-1.064a.5.5 0 1 1 .191.981c-1.977.384-3.967.744-5.917 1.069a.476.476 0 0 1-.083.007zM823.115 382a.504.504 0 0 1-.103-.01 196.307 196.307 0 0 1-5.869-1.32.5.5 0 1 1 .235-.971c1.931.465 3.895.907 5.839 1.312a.5.5 0 0 1-.102.99zm89.31-1.047a.5.5 0 0 1-.109-.988c1.93-.43 3.89-.893 5.825-1.377a.5.5 0 1 1 .242.97c-1.943.486-3.912.952-5.85 1.383a.519.519 0 0 1-.108.012zm-640.953-1.02a.5.5 0 0 1-.496-.446c-.217-1.984-.402-4-.55-5.993a.5.5 0 0 1 .999-.073c.145 1.98.33 3.984.546 5.957a.5.5 0 0 1-.499.554zm539.978-.744a.51.51 0 0 1-.132-.018 195.81 195.81 0 0 1-5.777-1.68.5.5 0 0 1-.33-.626.497.497 0 0 1 .625-.33c1.891.582 3.825 1.145 5.746 1.671a.501.501 0 0 1-.132.983zm112.612-1.151a.5.5 0 0 1-.133-.982c1.909-.532 3.842-1.099 5.745-1.684a.5.5 0 1 1 .293.956c-1.91.588-3.852 1.157-5.77 1.691a.491.491 0 0 1-.135.019zm-124.078-2.383a.508.508 0 0 1-.162-.026 217.93 217.93 0 0 1-5.66-2.027.5.5 0 1 1 .35-.937c1.874.7 3.77 1.379 5.634 2.017a.5.5 0 0 1-.162.973zm135.547-1.144a.5.5 0 0 1-.16-.974 229.89 229.89 0 0 0 5.648-1.984.5.5 0 1 1 .344.938 228.517 228.517 0 0 1-5.673 1.994.503.503 0 0 1-.159.026zm-146.773-3.047a.498.498 0 0 1-.188-.037 232.39 232.39 0 0 1-5.542-2.323.5.5 0 0 1 .399-.917c1.842.8 3.7 1.579 5.518 2.313a.5.5 0 0 1-.187.964zm158.04-1.08a.5.5 0 0 1-.184-.965c1.836-.728 3.7-1.494 5.537-2.28a.5.5 0 1 1 .393.92 235.507 235.507 0 0 1-5.56 2.29.501.501 0 0 1-.185.035zm-676.208-2.417a.5.5 0 0 1-.5-.48c-.076-1.986-.118-4.01-.124-6.017-.001-.276.264-.482.5-.501a.5.5 0 0 1 .5.498c.006 1.995.048 4.007.124 5.981a.5.5 0 0 1-.482.519h-.018zm507.182-1.273a.5.5 0 0 1-.21-.046 254.568 254.568 0 0 1-5.41-2.592.5.5 0 0 1 .443-.896c1.787.882 3.6 1.75 5.388 2.58a.5.5 0 0 1-.21.954zm180.062-1.026a.5.5 0 0 1-.209-.955 222.55 222.55 0 0 0 5.408-2.569.5.5 0 0 1 .441.897 229.98 229.98 0 0 1-5.431 2.582.506.506 0 0 1-.21.045zm-190.8-4.274a.5.5 0 0 1-.231-.056 278 278 0 0 1-5.293-2.84.5.5 0 1 1 .482-.875 275.94 275.94 0 0 0 5.273 2.828.5.5 0 0 1-.231.943zm201.57-1.02a.5.5 0 0 1-.232-.943c1.768-.928 3.54-1.889 5.264-2.854a.5.5 0 1 1 .488.872c-1.732.97-3.51 1.935-5.287 2.868a.502.502 0 0 1-.233.057zm-698.053-4.404h-.016a.5.5 0 0 1-.484-.516c.064-2.006.163-4.028.295-6.009a.5.5 0 0 1 .998.066c-.131 1.97-.23 3.98-.293 5.976a.5.5 0 0 1-.5.483zm485.977-.356a.5.5 0 0 1-.25-.067 306.033 306.033 0 0 1-5.176-3.058.5.5 0 0 1 .518-.856c1.71 1.033 3.429 2.05 5.158 3.048a.5.5 0 0 1-.25.933zm222.548-1.104a.5.5 0 0 1-.256-.93 221.235 221.235 0 0 0 5.102-3.134.5.5 0 1 1 .535.845 223.28 223.28 0 0 1-5.125 3.15.5.5 0 0 1-.256.07zm-232.825-5.1a.498.498 0 0 1-.267-.078 355.373 355.373 0 0 1-5.06-3.248.5.5 0 1 1 .547-.837 353.454 353.454 0 0 0 5.046 3.24.5.5 0 0 1-.266.922zm242.965-1.321a.5.5 0 0 1-.28-.915c1.645-1.106 3.301-2.253 4.923-3.41a.5.5 0 0 1 .58.815 224.433 224.433 0 0 1-4.944 3.425.498.498 0 0 1-.28.085zM271.346 344a.5.5 0 0 1-.498-.55c.203-2.007.442-4.017.71-5.976a.5.5 0 1 1 .99.136 171.25 171.25 0 0 0-.705 5.94.5.5 0 0 1-.497.45zm464.85-1.162a.499.499 0 0 1-.28-.086 389.477 389.477 0 0 1-4.956-3.411.5.5 0 1 1 .572-.82 387.581 387.581 0 0 0 4.944 3.403.5.5 0 0 1-.28.914zm262.79-1.718a.5.5 0 0 1-.302-.899 216.275 216.275 0 0 0 4.725-3.678.5.5 0 1 1 .625.78 218.275 218.275 0 0 1-4.746 3.696.499.499 0 0 1-.302.1zm-272.64-5.168a.498.498 0 0 1-.291-.094 447.144 447.144 0 0 1-4.86-3.547.5.5 0 1 1 .593-.804 479.768 479.768 0 0 0 4.85 3.54.5.5 0 0 1-.292.905zm282.004-2.338a.498.498 0 0 1-.323-.88 210.313 210.313 0 0 0 4.505-3.94.5.5 0 1 1 .669.743c-1.477 1.33-3 2.662-4.527 3.958a.496.496 0 0 1-.324.12zm-735.384-1.502a.5.5 0 0 1-.494-.584c.337-1.97.714-3.959 1.12-5.913a.5.5 0 1 1 .979.203c-.403 1.943-.778 3.92-1.113 5.879a.5.5 0 0 1-.492.415zm443.714-3.305a.497.497 0 0 1-.301-.102c-1.598-1.21-3.19-2.43-4.777-3.658a.5.5 0 1 1 .612-.79 599.08 599.08 0 0 0 4.768 3.651.499.499 0 0 1-.302.899zm300.588-3.22a.5.5 0 0 1-.345-.862 202.66 202.66 0 0 0 4.27-4.193.5.5 0 1 1 .71.703 202.33 202.33 0 0 1-4.29 4.214.498.498 0 0 1-.345.139zm-310.096-4.138a.5.5 0 0 1-.31-.107 756.656 756.656 0 0 1-4.707-3.747.5.5 0 0 1 .627-.78 685.559 685.559 0 0 0 4.7 3.742.5.5 0 0 1-.31.892zm-431.77-1.086a.5.5 0 0 1-.485-.618c.474-1.952.987-3.91 1.524-5.82a.5.5 0 0 1 .963.27 174.45 174.45 0 0 0-1.517 5.787.5.5 0 0 1-.486.381zm750.298-3.308a.499.499 0 0 1-.366-.84 198.702 198.702 0 0 0 4.01-4.438.5.5 0 0 1 .752.659 200.678 200.678 0 0 1-4.03 4.46.5.5 0 0 1-.366.16zm-327.903-3.13a.496.496 0 0 1-.316-.112A943.588 943.588 0 0 1 692.83 310a.5.5 0 0 1 .637-.771 941.416 941.416 0 0 0 4.645 3.808.5.5 0 0 1-.315.888zm-419.152-5.111a.5.5 0 0 1-.477-.652 170.75 170.75 0 0 1 1.93-5.7.5.5 0 1 1 .94.338c-.664 1.854-1.309 3.76-1.916 5.666a.501.501 0 0 1-.477.348zm754.961-.776a.5.5 0 0 1-.386-.818 198.323 198.323 0 0 0 3.733-4.672.501.501 0 0 1 .79.612 196.861 196.861 0 0 1-3.751 4.696.498.498 0 0 1-.386.182zm-345.083-1.76a.5.5 0 0 1-.32-.115 1482.146 1482.146 0 0 1-4.608-3.858.5.5 0 1 1 .642-.766 1480.44 1480.44 0 0 0 4.607 3.855.5.5 0 0 1-.32.885zm352.42-7.72a.498.498 0 0 1-.404-.794 189.265 189.265 0 0 0 3.433-4.892.5.5 0 0 1 .829.561 188.94 188.94 0 0 1-3.454 4.919.497.497 0 0 1-.404.206zm-361.618-.008a.495.495 0 0 1-.322-.119c-1.53-1.292-3.058-2.587-4.584-3.884a.5.5 0 1 1 .646-.762 2605.15 2605.15 0 0 0 4.582 3.883.5.5 0 0 1-.322.882zm-396.635-1.032a.5.5 0 0 1-.465-.685 167.26 167.26 0 0 1 2.329-5.55.5.5 0 1 1 .914.404 167.767 167.767 0 0 0-2.313 5.516.5.5 0 0 1-.465.315zm387.477-6.742a.5.5 0 0 1-.324-.119l-4.574-3.891a.5.5 0 0 1 .649-.762l4.573 3.891a.5.5 0 0 1-.324.881zm-382.64-4.237a.5.5 0 0 1-.45-.718c.874-1.803 1.789-3.608 2.722-5.367a.5.5 0 1 1 .882.468 167.898 167.898 0 0 0-2.704 5.335.5.5 0 0 1-.45.282zm373.494-3.543a.498.498 0 0 1-.323-.118c-1.525-1.295-3.05-2.59-4.578-3.88a.5.5 0 1 1 .646-.764 3842.2 3842.2 0 0 1 4.579 3.881.5.5 0 0 1-.324.881zm-367.876-7.057a.5.5 0 0 1-.433-.75 161.944 161.944 0 0 1 3.11-5.153.5.5 0 1 1 .846.532 161.784 161.784 0 0 0-3.09 5.122.5.5 0 0 1-.433.25zm358.712-.693a.5.5 0 0 1-.322-.117 1389.18 1389.18 0 0 0-4.597-3.851.5.5 0 0 1 .64-.768c1.537 1.282 3.07 2.566 4.602 3.853a.5.5 0 0 1-.323.883zm-9.214-7.682a.499.499 0 0 1-.318-.115 929.755 929.755 0 0 0-4.634-3.802.5.5 0 0 1 .633-.776c1.549 1.264 3.095 2.534 4.638 3.807a.5.5 0 0 1-.319.886zm-343.109-1.78a.5.5 0 0 1-.413-.782 156.36 156.36 0 0 1 3.488-4.906.501.501 0 0 1 .805.595 152.97 152.97 0 0 0-3.467 4.876.499.499 0 0 1-.413.218zm333.815-5.8a.5.5 0 0 1-.313-.11 769.017 769.017 0 0 0-4.685-3.735.5.5 0 0 1 .621-.784c1.568 1.24 3.131 2.487 4.69 3.74a.5.5 0 0 1-.313.89zm-326.681-3.849a.499.499 0 0 1-.39-.812 165.469 165.469 0 0 1 3.837-4.636.5.5 0 1 1 .758.652 165.893 165.893 0 0 0-3.815 4.608.499.499 0 0 1-.39.188zm317.275-3.586a.497.497 0 0 1-.306-.105 594.869 594.869 0 0 0-4.75-3.648.5.5 0 1 1 .606-.796 596.81 596.81 0 0 1 4.757 3.654.5.5 0 0 1-.307.895zm-309.46-5.518a.499.499 0 0 1-.368-.839 173.998 173.998 0 0 1 4.156-4.35.5.5 0 1 1 .711.703 172.85 172.85 0 0 0-4.133 4.325.498.498 0 0 1-.367.161zm299.916-1.733a.5.5 0 0 1-.298-.1 513.068 513.068 0 0 0-4.828-3.539.5.5 0 1 1 .586-.81 483.039 483.039 0 0 1 4.838 3.547.5.5 0 0 1-.298.902zm-291.478-6.795a.5.5 0 0 1-.343-.864 176.233 176.233 0 0 1 4.447-4.051.5.5 0 0 1 .66.75 178.605 178.605 0 0 0-4.422 4.029.497.497 0 0 1-.342.136zm281.77-.23c-.1 0-.2-.03-.288-.091a431.274 431.274 0 0 0-4.92-3.41.5.5 0 1 1 .563-.825 439.56 439.56 0 0 1 4.931 3.416.5.5 0 0 1-.287.91zm-9.904-6.753a.501.501 0 0 1-.275-.082c-1.666-1.1-3.34-2.185-5.024-3.255a.5.5 0 0 1 .537-.844 355.95 355.95 0 0 1 5.037 3.264.5.5 0 0 1-.275.917zm-262.862-.945a.499.499 0 0 1-.317-.886 179.343 179.343 0 0 1 4.708-3.742.5.5 0 1 1 .61.792 178.416 178.416 0 0 0-4.684 3.723.496.496 0 0 1-.317.113zm252.746-5.487a.491.491 0 0 1-.261-.074 317.064 317.064 0 0 0-5.137-3.075.5.5 0 1 1 .506-.863 315.538 315.538 0 0 1 5.152 3.085.5.5 0 0 1-.26.927zm-243.234-1.82a.499.499 0 0 1-.29-.907 184.29 184.29 0 0 1 4.943-3.426.5.5 0 1 1 .556.831 183.489 183.489 0 0 0-4.918 3.408.494.494 0 0 1-.29.093zm232.884-4.24a.5.5 0 0 1-.244-.064 290.872 290.872 0 0 0-5.257-2.871.5.5 0 0 1 .47-.883c1.77.943 3.527 1.903 5.275 2.88a.5.5 0 0 1-.244.937zm-222.915-2.434a.5.5 0 0 1-.265-.924 191.169 191.169 0 0 1 5.154-3.102.5.5 0 0 1 .502.865 189.142 189.142 0 0 0-5.126 3.086.498.498 0 0 1-.265.075zm212.322-3.206a.497.497 0 0 1-.225-.053 244.725 244.725 0 0 0-5.377-2.637.5.5 0 0 1 .43-.903 246.626 246.626 0 0 1 5.398 2.647.5.5 0 0 1-.226.946zm-201.948-2.817a.5.5 0 0 1-.237-.94 193.45 193.45 0 0 1 5.338-2.771.5.5 0 1 1 .447.894c-1.773.885-3.56 1.813-5.31 2.757a.495.495 0 0 1-.238.06zm191.11-2.337a.497.497 0 0 1-.204-.044c-1.813-.81-3.663-1.61-5.496-2.376a.5.5 0 0 1 .387-.923c1.84.77 3.696 1.573 5.518 2.386a.5.5 0 0 1-.204.957zm-180.377-3.026a.5.5 0 0 1-.21-.954 195.795 195.795 0 0 1 5.5-2.436.501.501 0 0 1 .391.921 193.723 193.723 0 0 0-5.472 2.423.503.503 0 0 1-.21.046zm169.308-1.605a.495.495 0 0 1-.182-.034 251.302 251.302 0 0 0-5.603-2.11.5.5 0 0 1 .342-.94c1.878.681 3.77 1.394 5.625 2.118a.5.5 0 0 1-.182.966zm-158.265-3.084a.5.5 0 0 1-.181-.966 199.044 199.044 0 0 1 5.638-2.093.5.5 0 0 1 .334.942c-1.87.663-3.757 1.363-5.61 2.083a.486.486 0 0 1-.18.034zm146.986-1.01a.503.503 0 0 1-.16-.025 243.537 243.537 0 0 0-5.698-1.838.5.5 0 1 1 .295-.955c1.9.587 3.826 1.208 5.722 1.844a.5.5 0 0 1-.16.974zm-135.676-2.993a.5.5 0 0 1-.152-.976 195.688 195.688 0 0 1 5.757-1.745.5.5 0 1 1 .275.96c-1.91.548-3.836 1.132-5.728 1.737a.486.486 0 0 1-.152.024zm124.211-.549a.5.5 0 0 1-.136-.019 241.173 241.173 0 0 0-5.781-1.556.5.5 0 1 1 .248-.968c1.927.493 3.88 1.018 5.805 1.562a.5.5 0 0 1-.136.981zm-112.675-2.755a.5.5 0 0 1-.123-.985c1.936-.49 3.905-.957 5.855-1.387a.5.5 0 1 1 .215.977 193.85 193.85 0 0 0-5.824 1.38.511.511 0 0 1-.123.015zm101.05-.219a.495.495 0 0 1-.111-.012 239.014 239.014 0 0 0-5.85-1.267.5.5 0 1 1 .198-.98c1.966.4 3.943.828 5.876 1.272a.5.5 0 0 1-.112.987zm-89.333-2.37a.5.5 0 0 1-.093-.99 191.931 191.931 0 0 1 5.928-1.024c.26-.04.53.143.572.416a.5.5 0 0 1-.417.572 193.037 193.037 0 0 0-5.897 1.018.505.505 0 0 1-.093.009zm77.577-.02a.486.486 0 0 1-.088-.007c-1.963-.347-3.95-.672-5.908-.967a.5.5 0 0 1 .148-.989 234.4 234.4 0 0 1 5.934.972.5.5 0 0 1-.086.992zm-11.864-1.785a.438.438 0 0 1-.063-.004c-1.968-.244-3.97-.466-5.95-.659a.5.5 0 0 1-.45-.546.514.514 0 0 1 .548-.45c1.988.194 3.999.417 5.975.663a.5.5 0 0 1-.06.996zm-53.86-.059a.5.5 0 0 1-.063-.996c1.975-.25 3.985-.476 5.977-.67a.5.5 0 0 1 .098.995c-1.983.193-3.984.418-5.948.667a.57.57 0 0 1-.065.004zm41.916-1.104-.035-.001c-1.99-.141-4.002-.256-5.975-.342a.5.5 0 0 1-.479-.52c.012-.277.226-.501.522-.479 1.983.087 4.003.202 6.003.342a.5.5 0 0 1-.036 1zm-29.974-.059a.501.501 0 0 1-.034-.999c1.978-.134 3.999-.244 6.005-.323.224-.01.507.203.52.48a.5.5 0 0 1-.481.519c-1.996.08-4.007.188-5.976.322l-.034.001zm17.99-.462h-.009a216.5 216.5 0 0 0-5.986-.014h-.006a.5.5 0 0 1-.006-1c2.007-.023 4.011-.019 6.014.014a.5.5 0 0 1-.008 1z"/><path fill="#0039b2" d="M341.037 665.225v4.837c0 11.735 9.513 21.249 21.249 21.249h454.208c11.735 0 21.248-9.514 21.248-21.249v-4.837a6.563 6.563 0 0 0-6.563-6.563H347.6a6.563 6.563 0 0 0-6.563 6.563zM817.867 346.937v311.725H360.916V346.948c0-9.214 7.471-16.674 16.674-16.674h423.615c9.202 0 16.662 7.46 16.662 16.663z"/><path fill="#fff" d="M810.685 658.656V346.93a9.484 9.484 0 0 0-9.484-9.484H377.578a9.484 9.484 0 0 0-9.484 9.484v311.726h442.591z"/><path fill="#5388f2" d="m640.655 658.657-6.56 11.115a5.2 5.2 0 0 1-4.478 2.557h-80.454a5.2 5.2 0 0 1-4.48-2.557l-6.558-11.115h102.53z"/><path fill="#719bff" d="M764.035 636.173H414.744c-5.69 0-10.302-4.612-10.302-10.301V263.13c0-5.69 4.612-10.302 10.302-10.302h349.291c5.69 0 10.302 4.612 10.302 10.302v362.742c0 5.69-4.612 10.301-10.302 10.301z"/><path fill="#fff" d="M407.988 625.326v-361.65a7.302 7.302 0 0 1 7.302-7.301h348.2a7.302 7.302 0 0 1 7.301 7.301v361.65a7.302 7.302 0 0 1-7.302 7.301H415.29a7.302 7.302 0 0 1-7.302-7.301z"/><path fill="#ffc837" d="M429.6 276.251a4.855 4.855 0 0 1-4.857 4.857 4.857 4.857 0 0 1-4.866-4.857 4.865 4.865 0 0 1 4.866-4.866 4.863 4.863 0 0 1 4.857 4.866z"/><path fill="#3cd278" d="M442.49 276.251a4.855 4.855 0 0 1-4.856 4.857 4.857 4.857 0 0 1-4.866-4.857 4.865 4.865 0 0 1 4.866-4.866 4.863 4.863 0 0 1 4.857 4.866z"/><path fill="#ff5252" d="M455.382 276.251a4.855 4.855 0 0 1-4.857 4.857 4.857 4.857 0 0 1-4.867-4.857 4.865 4.865 0 0 1 4.867-4.866 4.863 4.863 0 0 1 4.857 4.866z"/><circle cx="470.969" cy="346.004" r="41.369" fill="#c2d1f2"/><defs><circle id="a" cx="470.969" cy="346.004" r="41.369"/></defs><use fill="#dae3f7" overflow="visible" xlink:href="#a"/><clipPath id="b"><use overflow="visible" xlink:href="#a"/></clipPath><g clip-path="url(#b)"><path fill="#ff5252" d="M449.842 395.838c-.786-18.046-.926-39.796 2.768-42.278 13.17-8.849 33.443-6.527 38.063-3.878 7.574 4.343 5.648 38.67 4.875 46.156h-45.706z"/><path fill="#ff5252" d="M457.944 388.433c2.023-5.202 3.213-17.875 3.242-20.395.115-9.97-6.137-15.95-8.576-14.478-5.24 3.75-13.82 17.251-16.85 27.643-.442 1.788 21.742 9.017 22.184 7.23zM486.2 384.878c-2.024-5.202-3.214-17.874-3.243-20.395-.114-9.97 5.076-16.382 7.514-14.911 5.24 3.75 14.883 17.685 17.913 28.076.441 1.788-21.743 9.018-22.185 7.23z"/><path fill="#fff" d="M454.389 387.918c.061-.072.346.245 1.074.404.684.162 2.01.043 2.623-1.36.28-.559.428-1.205.563-1.863l.38-1.994a70.01 70.01 0 0 0 .585-4.018c.412-3.165.557-4.748.718-4.74.133.004.244 1.605-.05 4.817a70.304 70.304 0 0 1-.974 6.07c-.14.67-.292 1.367-.62 2.029-.385.78-1.063 1.338-1.72 1.5-.65.176-1.214.091-1.616-.056-.82-.315-1.008-.768-.963-.79zM496.432 379.342c-.152-.02-.11-1.096-.026-3.253.116-1.825.132-3.656.05-5.483-.044-2.156-.065-3.233.09-3.25.137-.016.414 1.04.582 3.22.083 1.85.067 3.706-.05 5.555-.209 2.18-.506 3.23-.646 3.21z"/><path fill="#ffc6b2" d="M477.43 342.445c-.951 1.096-.506 3.323-.481 5.367.652 2.746-8.92 3.798-10.284.412.752-3.023.61-7.1-.181-10.241s10.945 4.462 10.945 4.462z"/><path fill="#ffc6b2" d="M466.485 337.98h-.008c-.038-.053-.068-.098-.106-.135.046.045.084.09.114.135z"/><path fill="#fff" d="M465.161 348.45s5.694 5.497 5.803 5.497c.018-.063 2.533-3.84 2.533-3.84l-6.456-4.078c-.009.072-1.88 2.42-1.88 2.42z"/><path fill="#fff" d="M473.457 350.216s2.795 2.478 2.814 2.54c.117.371 3.014-5.391 3.014-5.391l-2.399-.994-3.39 3.736"/><path fill="#ffc6b2" d="M477.898 342.996c-4.485 2.325-9.148-2.31-10.959-4.46a11.58 11.58 0 0 1-.454-.556.897.897 0 0 0-.114-.135c-.007-.008-.015-.023-.03-.038-.114-.15-.174-.24-.174-.24-.008-.016-.053-.038-.121-.068-.657-.284-3.708-1.426-2.724-4.378.551-1.707 3.815.008 3.815.008s1.635-6.371 4.492-6.623c2.85-.26 7.622 3.598 7.622 3.598s.115.414.223 1.077c.077.437.17.987.255 1.605.48 3.362.803 8.835-1.83 10.21z"/><path d="M482.767 326.508c.41.632 4.065 2.186 2.35 5.277-.36.65-1.3.97-2.567 1.066-.83.063-1.787.03-2.82-.065a43.181 43.181 0 0 0-.256-1.605c-.108-.663-.223-1.077-.223-1.077s-4.773-3.858-7.622-3.598c-2.857.252-4.492 6.623-4.492 6.623s-3.264-1.715-3.815-.008c-.984 2.952 2.067 4.094 2.724 4.378.113.113.212.21.295.308.015.015.023.03.03.038.046.045.084.09.114.135h-.008c-6.829-1.15-9.904-14.553-5.577-18.755 3.637-3.52 9.666-.445 12.781-.178 3.116.267 7.047-5.056 9.9-4.163 2.87.902-.174 5.596.41 6.53.584.932 1.494.273 2.316 2.268.815 1.995-3.942 2.194-3.54 2.826z"/><path d="M467.137 333.129s1.21-2.344 3.05-3.458c.134-.08 9.116 2.368 9.842.122.725-2.246-.489-5.526-.489-5.526s-4.092-1.693-4.6-1.771c-.507-.078-6.8 2.376-7.307 2.538s-2.34 2.733-2.34 2.733l1.703 5.291M471.905 342.314c.044-.07.454.17 1.33.496a7.427 7.427 0 0 0 2.306.52c.93.082 1.403.041 1.414.126.01.06-.456.231-1.435.21a7.755 7.755 0 0 1-2.41-.543c-.894-.402-1.242-.758-1.205-.81z"/></g><path fill="#719bff" d="M589.384 314.347v16.266a3.723 3.723 0 0 1-3.724 3.724h-51.068a3.723 3.723 0 0 1-3.723-3.724v-16.266a3.723 3.723 0 0 1 3.723-3.723h51.068a3.723 3.723 0 0 1 3.724 3.723z"/><path fill="#d7e7ff" d="M748.817 344.243c0 .509-.212.994-.555 1.336a1.887 1.887 0 0 1-1.336.556H532.76a1.89 1.89 0 0 1-1.336-3.227 1.844 1.844 0 0 1 1.336-.556h214.166c1.04 0 1.891.84 1.891 1.891zM748.817 354.343c0 .508-.212.993-.555 1.336a1.886 1.886 0 0 1-1.336.555H532.76a1.89 1.89 0 0 1-1.336-3.227 1.844 1.844 0 0 1 1.336-.555h214.166c1.04 0 1.891.839 1.891 1.89zM669.598 364.442c0 .509-.213.993-.556 1.336a1.886 1.886 0 0 1-1.336.556H532.76a1.89 1.89 0 0 1-1.336-3.228 1.844 1.844 0 0 1 1.336-.555h134.946c1.04 0 1.892.84 1.892 1.891z"/><path fill="#9bb2e1" d="M751.73 483.008H429.6a.75.75 0 0 1-.75-.75v-75.515a.75.75 0 0 1 1.5 0v74.765h321.38a.75.75 0 0 1 0 1.5z"/><path fill="#d7e7ff" d="M481.786 442.265h-37.855a2.644 2.644 0 0 1-2.644-2.644v-30.234a2.644 2.644 0 0 1 2.644-2.644h37.855a2.644 2.644 0 0 1 2.644 2.644v30.234a2.644 2.644 0 0 1-2.644 2.644zM748.817 411.22c0 .71-.578 1.288-1.277 1.288H493.792a1.288 1.288 0 0 1-1.277-1.289c0-.699.579-1.277 1.277-1.277H747.54c.7 0 1.277.578 1.277 1.277zM748.817 418.737c0 .711-.578 1.29-1.277 1.29H493.792a1.288 1.288 0 0 1-1.277-1.29c0-.699.579-1.277 1.277-1.277H747.54c.7 0 1.277.578 1.277 1.277zM748.817 426.255c0 .711-.578 1.29-1.277 1.29H493.792a1.288 1.288 0 0 1-1.277-1.29c0-.699.579-1.277 1.277-1.277H747.54c.7 0 1.277.578 1.277 1.277zM748.817 433.773c0 .711-.578 1.29-1.277 1.29H493.792a1.288 1.288 0 0 1-1.277-1.29c0-.699.579-1.277 1.277-1.277H747.54c.7 0 1.277.578 1.277 1.277zM748.817 441.291c0 .711-.578 1.29-1.277 1.29H493.792a1.288 1.288 0 0 1-1.277-1.29c0-.698.579-1.277 1.277-1.277H747.54c.7 0 1.277.579 1.277 1.277zM748.817 448.81c0 .71-.578 1.288-1.277 1.288H441.926a1.288 1.288 0 0 1-1.278-1.289c0-.698.579-1.277 1.278-1.277H747.54c.7 0 1.277.579 1.277 1.277zM748.817 456.327c0 .711-.578 1.29-1.277 1.29H441.926a1.288 1.288 0 0 1-1.278-1.29c0-.698.579-1.277 1.278-1.277H747.54c.7 0 1.277.579 1.277 1.277zM748.817 463.846c0 .71-.578 1.289-1.277 1.289H441.926a1.288 1.288 0 0 1-1.278-1.29c0-.698.579-1.277 1.278-1.277H747.54c.7 0 1.277.579 1.277 1.278zM748.817 471.364c0 .71-.578 1.289-1.277 1.289H441.926a1.288 1.288 0 0 1-1.278-1.29c0-.698.579-1.277 1.278-1.277H747.54c.7 0 1.277.579 1.277 1.278z"/><circle cx="446.771" cy="526.963" r="20.483" fill="#3cd278"/><path fill="#fff" d="M442.618 535.801c-.55 0-1.078-.219-1.467-.607l-3.517-3.518a2.073 2.073 0 1 1 2.933-2.933l2.05 2.051 10.358-10.357a2.073 2.073 0 1 1 2.933 2.933l-11.824 11.824a2.073 2.073 0 0 1-1.466.607z"/><path fill="#dae3f7" d="M565.522 514.33v5.954a2.23 2.23 0 0 1-2.235 2.227H476.97a2.222 2.222 0 0 1-2.226-2.227v-5.954c0-1.228.99-2.226 2.226-2.226h86.317a2.23 2.23 0 0 1 2.235 2.226zM474.744 527.853h124.648v1.747H474.744zM474.744 533.964h124.648v1.747H474.744zM474.744 540.075h42.942v1.747h-42.942z"/><circle cx="446.771" cy="586.787" r="20.483" fill="#3cd278"/><path fill="#fff" d="M442.618 595.625c-.55 0-1.078-.219-1.467-.608l-3.517-3.517a2.073 2.073 0 1 1 2.933-2.933l2.05 2.051 10.358-10.357a2.073 2.073 0 1 1 2.933 2.933l-11.824 11.823a2.073 2.073 0 0 1-1.466.608z"/><path fill="#dae3f7" d="M565.522 574.154v5.954a2.23 2.23 0 0 1-2.235 2.226H476.97a2.222 2.222 0 0 1-2.226-2.226v-5.954c0-1.228.99-2.226 2.226-2.226h86.317a2.23 2.23 0 0 1 2.235 2.226zM474.744 587.677h124.648v1.747H474.744zM474.744 593.788h124.648v1.747H474.744zM474.744 599.899h42.942v1.747h-42.942z"/><path fill="#e4f0fd" d="M751.735 508.592v91.974c0 3.7-3.01 6.7-6.71 6.7h-117.65c-3.7 0-6.71-3-6.71-6.7v-91.974c0-3.7 3.01-6.7 6.71-6.7h117.65c3.7 0 6.71 3 6.71 6.7z"/><path d="M720.528 581.97H655.12a1.598 1.598 0 0 1-1.599-1.598v-.258c0-.883.716-1.598 1.599-1.598h65.408c.882 0 1.598.715 1.598 1.598v.258c0 .882-.716 1.598-1.598 1.598zM720.528 590.326H655.12a1.598 1.598 0 0 1-1.599-1.599v-.257c0-.883.716-1.599 1.599-1.599h65.408c.882 0 1.598.716 1.598 1.599v.257c0 .883-.716 1.599-1.598 1.599zM720.528 598.681H655.12a1.598 1.598 0 0 1-1.599-1.598v-.258c0-.882.716-1.598 1.599-1.598h65.408c.882 0 1.598.716 1.598 1.598v.258c0 .883-.716 1.598-1.598 1.598z" opacity=".1"/><g opacity=".1"><path d="M713.088 548.74c-2.082 12.776-13.192 22.53-26.573 22.475v-.013c-14.818-.054-26.788-12.105-26.735-26.922a26.837 26.837 0 0 1 7.914-18.956c3.936-3.91 9.054-6.597 14.75-7.483l-.04 11.849c-6.368 1.827-11.03 7.698-11.043 14.63v.04c0 8.41 6.798 15.235 15.194 15.262h.067c6.92 0 12.776-4.622 14.63-10.936l11.836.054z"/><path d="m715.327 544.475-.003.934a.937.937 0 0 1-.94.934l-13.442-.05a.937.937 0 0 1-.934-.937v-.06c0-7.855-6.426-14.302-14.281-14.328a.937.937 0 0 1-.934-.94l.05-13.445a.937.937 0 0 1 .94-.933l.934.003c7.672.031 14.876 3.044 20.277 8.489 5.402 5.445 8.364 12.667 8.333 20.333z"/></g><path fill="#719bff" d="M710.512 546.015c-2.082 12.777-13.193 22.53-26.573 22.476v-.013c-14.819-.054-26.789-12.105-26.735-26.923a26.837 26.837 0 0 1 7.913-18.956c3.936-3.909 9.055-6.596 14.751-7.483l-.04 11.85c-6.368 1.827-11.03 7.697-11.043 14.63v.04c0 8.41 6.797 15.234 15.194 15.261h.067c6.919 0 12.776-4.62 14.63-10.935l11.836.053z"/><path fill="#ffc837" d="m712.75 541.75-.003.935a.937.937 0 0 1-.94.933l-13.442-.049a.937.937 0 0 1-.933-.937v-.06c0-7.855-6.427-14.302-14.281-14.328a.937.937 0 0 1-.934-.94l.05-13.445a.937.937 0 0 1 .94-.933l.934.003c7.671.031 14.875 3.044 20.277 8.489 5.401 5.445 8.364 12.667 8.332 20.333z"/><path fill="#fff" d="M719.138 580.876H653.73a1.598 1.598 0 0 1-1.598-1.598v-.258c0-.883.716-1.598 1.598-1.598h65.408c.883 0 1.599.715 1.599 1.598v.258c0 .882-.716 1.598-1.599 1.598zM719.138 589.232H653.73a1.598 1.598 0 0 1-1.598-1.599v-.257c0-.883.716-1.599 1.598-1.599h65.408c.883 0 1.599.716 1.599 1.599v.257c0 .883-.716 1.599-1.599 1.599zM719.138 597.587H653.73a1.598 1.598 0 0 1-1.598-1.598v-.258c0-.882.716-1.598 1.598-1.598h65.408c.883 0 1.599.716 1.599 1.598v.258c0 .883-.716 1.598-1.599 1.598z"/><path fill="#d250dc" d="M187.044 477.562s-12.82 7.011-18.348 22.466 3.435 19.221 3.435 19.221l22.76-4.935 8.928-10.131-2.727-15.064-14.048-11.557z"/><path d="M245.845 698.247h37.181v6.183h-37.181z"/><path d="m262.969 682.34 20.057 15.907h-37.181v-15.906z"/><path fill="#fff" d="M283.031 698.5h-18.44a.25.25 0 0 1 0-.5h18.44a.25.25 0 0 1 0 .5zM253.658 702.77a6.54 6.54 0 0 1-.192 1.66h-.741c0-.03 0-.06.014-.089.12-.49.178-1.008.178-1.572 0-1.571-.519-3.098-1.468-4.3a2.525 2.525 0 0 0-.192-.222 7.046 7.046 0 0 0-5.412-2.55v-.741c2.417 0 4.744 1.141 6.198 3.068.059.075.103.149.162.223.935 1.275 1.453 2.877 1.453 4.522z"/><path d="M188.949 698.247h37.181v6.183h-37.181z"/><path d="m206.073 682.34 20.057 15.907h-37.18v-15.906z"/><path fill="#fff" d="M226.136 698.5h-18.44a.25.25 0 0 1 0-.5h18.44a.25.25 0 0 1 0 .5zM196.763 702.77a6.54 6.54 0 0 1-.193 1.66h-.741c0-.03 0-.06.015-.089.118-.49.177-1.008.177-1.572 0-1.571-.518-3.098-1.468-4.3a2.525 2.525 0 0 0-.192-.222 7.046 7.046 0 0 0-5.412-2.55v-.741c2.417 0 4.744 1.141 6.198 3.068.059.075.104.149.163.223.934 1.275 1.453 2.877 1.453 4.522z"/><path fill="#0039b2" d="M269.757 684.79c-3.54 1.78-21.45 3.74-28.34-.37-.57-.33-1.78-5.4-3.31-13.01-.21-1.03-.42-2.09-.64-3.2-5.19-26.57-13.26-82.64-13.26-82.64s-2.67 56.29-4.51 83.08c-.08 1.21-.17 2.37-.25 3.48-.54 7.53-.98 12.55-1.23 12.95-1.76 2.8-28.79 5.53-32.61-.36l5.56-133.86c2.36-6.02 60.47-.83 60.47-.83s14.52 91.21 17.85 122.98c.09.97.19 1.9.26 2.77.51 5.41.57 8.74.01 9.01z"/><path fill="#fff" d="M248.324 674.625c.054-.164 1.291.244 3.85.6a22.07 22.07 0 0 0 6.535.036c2.558-.327 3.8-.721 3.853-.553.043.108-1.134.756-3.759 1.219-2.23.322-4.506.309-6.732-.037-2.622-.492-3.792-1.153-3.747-1.265zM193.026 673.194c.036-.152 1.62.153 4.79.767 2.674.552 5.388.944 8.1.879 3.199-.036 4.753-.496 4.797-.31.04.095-1.484.819-4.781.982-2.789.066-5.552-.335-8.252-.892-3.174-.74-4.686-1.291-4.654-1.426zM191.683 570.598c-.045-.066.325-.37 1.026-1.01a18.143 18.143 0 0 0 2.79-3.192c1.851-2.61 2.78-5.832 2.671-9.03a17.807 17.807 0 0 0-.575-4.196c-.236-.917-.388-1.372-.309-1.406.056-.024.335.377.69 1.284.347.904.77 2.33.866 4.299.116 3.332-.858 6.707-2.791 9.435-1.168 1.591-2.304 2.551-3.09 3.117-.792.564-1.241.756-1.278.699zM253.666 567.332c-.037.056-.43-.104-1.134-.57-.697-.473-1.716-1.259-2.826-2.563-1.842-2.24-3.051-4.98-3.52-7.836-.24-1.693-.167-2.976-.055-3.811.111-.838.264-1.237.326-1.228.084.012.068.429.074 1.253.004.823.028 2.06.318 3.677.452 2.743 1.612 5.372 3.377 7.52 1.018 1.289 1.94 2.119 2.55 2.67.619.547.934.821.89.888zM225.765 562.402c.063-.031.378.433.924 1.417.531.99 1.345 2.485 2.075 4.659.581 1.847.9 3.819.708 5.782a12.056 12.056 0 0 1-1.972 5.492c-.648.968-1.404 1.66-1.949 2.266-.558.607-.912 1.17-1.09 1.67-.354 1.012-.09 1.57-.187 1.59-.03.046-.473-.518-.196-1.706.137-.577.5-1.252 1.049-1.916.547-.675 1.23-1.35 1.814-2.278a11.383 11.383 0 0 0 1.862-5.184c.18-1.849-.118-3.726-.68-5.516-.65-2.124-1.37-3.65-1.795-4.683-.439-1.03-.632-1.559-.563-1.593zM262.4 649.653c-.14.025-1.296-5.756-3.433-17.482l-5.28-29.825c-2.018-11.735-2.918-17.561-2.773-17.587.145-.025 1.297 5.756 3.434 17.47l5.281 29.825c2.017 11.747 2.92 17.573 2.772 17.6zM194.12 649.799c-.143-.002-.188-5.124-.077-15.477l.432-26.307c.23-10.34.443-15.458.59-15.456.147.003.19 5.124.083 15.467l-.433 26.307c-.233 10.351-.443 15.468-.594 15.466z"/><path fill="#d250dc" d="M186.47 478.399c1.37-5.424 54.24-10.567 66.342 1.869 3.87 3.978 2.612 76.553 2.612 76.553 0 3.116-70.847.779-70.847-2.337 0 0-1.21-63.792 1.894-76.085z"/><path fill="#3cd278" d="m194.89 509.46-33.446-6.738-34.593 169.629 33.446 6.738z"/><path fill="#ffc6b2" d="m160.3 679.09-33.448-6.74 10.552 33.988z"/><path d="m142.824 699.887-5.42 6.451-2.498-8.046z"/><path d="m137.404 706.338-10.552-33.987 7.251 1.46 3.302 32.526z" opacity=".05"/><path fill="#fff" d="m137.408 706.333 15.64-28.705 7.251 1.461z" opacity=".1"/><path fill="#ffc6b2" d="M137.405 706.338v-.001l.003-.004z"/><path d="m126.852 672.351 7.251 1.46 34.593-169.627-7.25-1.46z" opacity=".05"/><path fill="#fff" d="m160.3 679.09 34.592-169.628-7.25-1.461-34.594 169.628z" opacity=".1"/><path fill="#ffc837" d="m194.89 509.46-33.446-6.738 3.19-15.835a5.119 5.119 0 0 1 6.03-4.007l23.41 4.716a5.119 5.119 0 0 1 4.007 6.03l-3.19 15.834z"/><path d="m168.996 482.544 3.902.786-4.201 20.853-7.251-1.461 3.526-17.503a3.417 3.417 0 0 1 4.024-2.675z" opacity=".05"/><path fill="#fff" d="m198.419 491.957-3.526 17.503-7.251-1.46 4.2-20.853 3.902.786a3.417 3.417 0 0 1 2.675 4.024z" opacity=".1"/><path fill="#ffc6b2" d="m257.174 522.298-2.068-5.488 18.816-14.088s10.737 10.967 10.562 14.086l-27.31 5.49z"/><path fill="#d250dc" d="M251.595 479.131c9.348 5.79 17.14 15.054 25.257 23.59 1.976 3.219-21.584 17.678-23.56 14.46L248 488.016l3.595-8.885z"/><path fill="#ffc6b2" d="m245.118 543.58 7.254 9.82s31.504-25.855 32.116-36.59l-27.31 5.488-12.06 21.282zM147.977 565.686c3.423.823 7.163-2.521 8.353-7.47s-.622-9.626-4.045-10.45c-3.423-.822-7.732 17.097-4.308 17.92zM231.155 473.11l.576-5.034s8.816 2.286 10.285-1.877c1.47-4.163 4.326-24.324-2.938-27.916-7.265-3.591-21.957.98-21.957.98l-3.266 13.713 1.388 19.605 14.352 9.982 1.56-9.454z"/><path d="M214.79 462.402s-.666-8.058 1.636-8.422c2.303-.363 3.817 2.484 3.817 2.484s1.879-3.695 1.454-5.089c-.424-1.393 22.054 5.453 25.75-.97 3.696-6.422 1.697-21.266-4.302-22.053-5.998-.788-13.874 5.574-19.448 4.605s-10.967-1.091-13.875 6.543c-2.908 7.634 4.968 22.902 4.968 22.902z"/><path fill="#ffc6b2" d="M236.745 557.824c6.491 5.89 15.627-4.424 15.627-4.424l-7.254-9.822s-5.759.471-5.638 2.518c.11 2.047 1.936 1.856 1.936 1.856s-11.163 3.973-4.671 9.872z"/><path fill="#fff" d="M253.222 491.667c.062-.031.373.451.906 1.477a28.71 28.71 0 0 1 1.831 4.878 34.678 34.678 0 0 1 1.05 11.724 28.652 28.652 0 0 1-.934 5.122c-.342 1.103-.564 1.632-.632 1.612-.2-.05.551-2.235.896-6.788a34.003 34.003 0 0 0-1.03-11.498c-1.15-4.424-2.279-6.44-2.087-6.527zM213.55 477.28c.044-.062.725.356 2.072 1.224 1.346.868 3.358 2.186 6.094 3.877a156.463 156.463 0 0 0 5.133 3.095l2.61 1.472 2.123 1.148-.014-.514c-.005-.368-.01-.736 0-1.104a32.78 32.78 0 0 1 .113-2.206c.326-3.243 1.04-5.59 1.592-7.1.566-1.512.965-2.212 1.024-2.187.076.031-.194.783-.643 2.312-.436 1.528-1.045 3.854-1.303 7.034a32.193 32.193 0 0 0-.11 2.158c-.01.36-.005.72 0 1.081l.016.58.042 1.09-3.164-1.703-2.622-1.479a156.88 156.88 0 0 1-5.155-3.107c-2.716-1.75-4.682-3.153-5.965-4.119-1.284-.965-1.885-1.495-1.843-1.552z"/><path fill="#ff5d5d" d="M1000.845 731.869a.452.452 0 0 1-.446.49h-3.397a.438.438 0 0 1-.435-.392l-.414-3.353h-1.774l-.327.74-.24.544-.968 2.189a.438.438 0 0 1-.403.272H974.83a.442.442 0 0 1-.447-.447v-2.427c0-.87.25-1.709.73-2.428.109-.196.25-.38.413-.544a4.166 4.166 0 0 1 1.274-1.012l7.772-4.06s.795-2.961.99-3.157c.197-.196 14.065 0 14.065 0l.588 6.499.043.544.588 6.542z"/><path fill="#fff" d="M1000.257 725.327h-8.654v-.544h8.61zM994.052 729.354l-.24.544h-12.3a.276.276 0 0 1-.272-.272v-2.569h-6.128c.109-.196.25-.38.413-.544h5.987a.27.27 0 0 1 .272.272v2.57h12.268z"/><path d="m961.048 732.382 40.3-68.348 40.29 68.348h2.975l-43.265-73.396-43.276 73.396z"/><path fill="#ffc6b2" d="M957.873 586.114s-7.112 39.303-6.818 39.185c.295-.118 26.044.295 26.28 0 .236-.295-2.828-51.97-2.828-51.97l-5.068 1.827-11.566 10.958z"/><path fill="#ff784b" d="M919.176 668.219a9.15 9.15 0 0 0 2.702 6.5 9.11 9.11 0 0 0 6.5 2.7h104.315c10.185 0 18.425-8.239 18.425-18.401h-122.74a9.202 9.202 0 0 0-9.202 9.2zM968.973 658.986h82.17l.29-1.137 21.158-83.836c2.88-11.425-5.75-22.499-17.526-22.499h-58.97l-27.122 107.472z"/><path fill="#3cd278" d="M957.125 586.5c.098-.633.258-1.28.424-1.996 4.016-17.357 12.667-26.36 14.413-27.266l10.932 13.633L986.5 586.5c0 1.058-29.376 1.058-29.376 0z"/><path fill="#1258ff" d="m950.094 621.626 13.746-.936s18.785-10.436 19.528-10.157c.742.278 6.958 17.165 6.68 17.443-.278.278-15.68 16.886-15.68 16.886l28.863 75.286c0 2.424-20.329 1.914-20.329-.51l-46.013-70.69c-7.666-11.148-.293-26.403 13.205-27.322z"/><path fill="#fff" d="M1006.081 657.85v1.136h45.028l.325-1.137"/><path fill="#ff5d5d" d="M940.33 731.869a.452.452 0 0 1-.447.49h-3.396a.438.438 0 0 1-.436-.392l-.413-3.353h-1.775l-.326.74-.24.544-.969 2.189a.438.438 0 0 1-.402.272h-17.613a.442.442 0 0 1-.446-.447v-2.427c0-.87.25-1.709.729-2.428.109-.196.25-.38.414-.544a4.166 4.166 0 0 1 1.273-1.012l7.772-4.06s.795-2.961.991-3.157c.196-.196 14.064 0 14.064 0l.588 6.499.043.544.588 6.542z"/><path fill="#fff" d="M939.741 725.327h-8.654v-.544h8.61zM933.537 729.354l-.24.544h-12.3a.276.276 0 0 1-.273-.272v-2.569h-6.128c.109-.196.25-.38.414-.544h5.987a.27.27 0 0 1 .272.272v2.57h12.268z"/><path fill="#1258ff" d="M977.53 658.98 941.13 719.75l-18.869-.34s14.924-62.627 24.379-81.163a21.495 21.495 0 0 1 13.356-10.93l30.424-6.022 29.464 1.309c.37.956 3.943 33.577-11.065 36.375H977.53z"/><path fill="#fff" d="M924.95 711.963c.023-.141 1.42-.048 4.21.341l7.07 1.139c2.77.506 4.124.856 4.1 1.001-.023.145-1.418.048-4.207-.337l-7.07-1.139c-2.771-.51-4.126-.856-4.102-1.005z"/><path fill="#3cd278" d="M963.407 620.687c.94 4.264 53.979 6.075 58.713 1.914 3.196-2.794 9.707-61.243 5.28-67.421-.725-1.017-7.177-1.769-15.474-2.068h-.009c-6.938-.256-15.167-.188-22.422.308-9.058.623-16.281 2.161-18.158 4.11-4.563 4.736-3.098 21.123-4.118 35.556-.96 13.588-4.086 26.362-3.812 27.6z"/><path fill="#fff" d="m986.501 586.5 24.215-33.447c-6.92-.268-13.209-.312-20.702.332-.162.014-3.513 33.115-3.513 33.115z"/><path fill="#719bff" d="M964.327 621.296h-53.832a2.198 2.198 0 0 1-2.09-1.52l-15.27-47.116a2.198 2.198 0 0 1 2.091-2.875h52.408l16.693 51.51z"/><path fill="#6385d2" d="M968.792 621.296h-4.465l-16.688-51.513h2.905c.922 0 1.742.604 2.027 1.481l16.221 50.032z"/><path fill="#6385d2" d="M991.85 621.296h-26.452v-3.556h22.899a3.553 3.553 0 0 1 3.553 3.556z"/><path fill="#ffc6b2" d="M1039.248 609.42c-.911 6.983-6.892 12.188-13.931 12.143l-35.073-.262s-24.846 4.706-24.674-8.578c.142-10.868 15.608-2.465 15.756-2.602.137-.148-2.778-1.434-.439-3.704 1.058-1.027 7.386 2.832 7.386 2.832l28.933-6.584-.444-17.736 25.254 2.37c.057.33-1.503 12.393-2.768 22.121z"/><path fill="#3cd278" d="M1013.249 588.297c.145 4.067 29.352 2.487 29.6 1.367 0 0-2.316-22.832-3.05-24.652-3.71-9.255-13.15-10.203-13.15-10.203s-8.877 1.926-11.765 10.334c-1.991 5.794-1.704 21.3-1.635 23.154z"/><path fill="#0df3ff" d="M1014.062 531.431c-.023-.023-.023-.046-.023-.046v.046h.023z"/><path fill="#ffc6b2" d="M1004.657 522.935v7.49c-.951.692-2.196.258-2.77-.763-.564-1.022-.564-2.254-.635-3.416-.082-1.174-.317-2.43-1.197-3.205-1.374-1.186-3.475-.575-5.165.105-2.689 1.092-5.389 2.23-8.253 2.736-2.148.375-4.414.375-6.492-.259.118-2.77.247-4.695.247-4.695s6.703-5.682 7.395-5.682c.705 0 11.329 3.37 11.833 3.557.505.176 5.037 4.132 5.037 4.132z"/><path fill="#fff" d="M1004.099 613.027h93.69v1.001h-93.69z" transform="rotate(-75.069 1050.944 613.527)"/><path fill="#fff" d="M966.618 626.01c.014.071-.796.3-2.439.685l-3.092.691-.97.21-.985.313c-.69.24-1.415.534-2.174.882a21.14 21.14 0 0 0-9.33 8.374c-.733 1.2-1.281 2.545-1.9 3.835-1.456 3.054-2.568 5.327-3.333 6.83-.764 1.503-1.182 2.235-1.249 2.205-.067-.03.224-.817.885-2.37.66-1.554 1.688-3.873 3.093-6.963.624-1.298 1.162-2.626 1.927-3.882a21.817 21.817 0 0 1 9.626-8.64c.79-.346 1.544-.63 2.26-.86.371-.105.685-.21 1.066-.304l.976-.176 3.122-.538c1.666-.27 2.502-.365 2.517-.292zM967.35 674.412c-.12-.08.83-1.757 2.923-5.04l5.446-8.256 1.665-2.408.858.027.617.03.947.065c.505.046.757.097.757.15 0 .053-.252.103-.757.149l-.947.065-1.183.056c.025-.026-.143.24-.24.398l-.353.567-.803 1.27-5.445 8.258c-2.195 3.214-3.36 4.752-3.486 4.669zM1013.795 646.536c-.014.057-.563.013-1.585-.38-1.007-.396-2.523-1.183-4.011-2.844a11.373 11.373 0 0 1-2.515-4.986c-.421-1.829-.456-3.716-.272-5.557.26-2.17.693-3.735.978-4.77.298-1.033.492-1.534.563-1.517.073.017.012.551-.172 1.606-.172 1.056-.508 2.63-.7 4.747-.179 1.789-.142 3.604.259 5.34.388 1.737 1.2 3.36 2.367 4.697a11.905 11.905 0 0 0 3.669 2.92c.937.482 1.444.66 1.419.744zM977.733 712.644c-.01-.143 1.67-.394 5.083-.7l8.683-.626c3.418-.187 5.117-.18 5.128-.032.01.146-1.67.394-5.08.703l-8.683.626c-3.422.183-5.12.18-5.131.03zM976.917 704.601c-.123.073-1.32-1.705-3.567-5.402l-5.578-9.474c-2.142-3.754-3.116-5.663-2.99-5.738s1.322 1.705 3.57 5.397l5.578 9.473c2.14 3.76 3.117 5.668 2.987 5.744zM928.737 710.336c-.033-.013.043-.314.23-.905.187-.59.487-1.47.895-2.642l3.712-10.565a703.136 703.136 0 0 0 8.079-24.03l3.423-10.654c.382-1.18.675-2.061.883-2.644.208-.584.33-.87.366-.86.035.011-.019.317-.163.92a92.2 92.2 0 0 1-.703 2.699c-.659 2.393-1.69 5.976-3.165 10.741a704.66 704.66 0 0 1-8.087 24.054 362.318 362.318 0 0 1-3.97 10.48c-.928 2.303-1.43 3.432-1.5 3.406z"/><path fill="#253066" d="m992.4 547.014-.014-.5c.025 0 2.563-.092 5.43-1.707l.246.435c-2.981 1.68-5.554 1.769-5.663 1.772zM1008.805 534.87c-.06-.162.526-.319 1.163-1.04.551-.559.618-1.584.064-2.048-.685-.597-1.266-.302-1.32-.451-.036-.053.042-.218.35-.336.297-.11.856-.14 1.408.276.919.827.732 2.242-.005 3.011-.458.444-.907.59-1.194.647-.294.053-.448.012-.466-.058z"/><path fill="#fff" d="M968.416 587.588c-.144.001-.28-1.121-.355-3.393l-.038-5.773c.045-2.27.167-3.394.314-3.395.147 0 .281 1.122.359 3.391l.037 5.773c-.048 2.272-.167 3.396-.317 3.397zM1016.755 569.73c-.117-.018-.173-1.301.3-3.878.473-2.15 1.359-4.337 3.004-5.938.98-.924 1.932-1.345 2.567-1.523.644-.173.982-.14.992-.078.017.081-.289.186-.85.452a7.785 7.785 0 0 0-2.237 1.629c-1.52 1.476-2.36 3.515-2.82 5.607-.579 2.478-.783 3.758-.956 3.73zM1014.018 584.934c.144.003.28.425.352 1.27l.032 2.149c-.047.845-.17 1.27-.318 1.275-.147.006-.279-.41-.355-1.26l-.032-2.167c.05-.853.17-1.27.321-1.267z"/><path d="M885.737 732.382v-97.48c0-4.456 3.625-8.08 8.082-8.08h140.757c4.456 0 8.082 3.624 8.082 8.08v97.48h5.525v-97.48c0-7.502-6.104-13.606-13.607-13.606H893.819c-7.503 0-13.608 6.104-13.608 13.607v97.479h5.526zM1021.679 605.261c.034.114-.491.45-1.635.299a4.453 4.453 0 0 1-2.46-1.431c-.696-.92-.665-1.541-.546-1.57.157-.058.373.427 1.05 1.126a3.776 3.776 0 0 0 2.092 1.216c.944.244 1.472.192 1.499.36z"/><path fill="#253066" d="M983.982 592.364c-.03-.021.13-.291.482-.812.35-.521.885-1.3 1.665-2.289 1.535-1.999 3.992-4.886 7.482-8.553 5.932-6.187 12.225-12.018 17.854-18.44l.532-.602c.182.037-.49-.115-.883-.205l-3.247-.738 3.485-1.77 1.187-.593.544-.27.255-.12-1.955-2.05c-.47-.51-.69-.778-.663-.806s.3.187.819.646l.964.873 1.54 1.441-4.473 2.424.084.012.034.004.293.061 1.269.268 1.794.384.17.037-.111.131-.229.265-.424.493-.478.556c-5.666 6.464-11.96 12.292-17.876 18.466-3.524 3.613-6.038 6.422-7.655 8.338-1.626 1.91-2.382 2.905-2.46 2.85z"/><path fill="#253066" d="M983.981 592.367c-.07.008-.254-.952-.537-2.894-.28-1.943-.67-4.866-1.056-8.798-.292-3.332-.539-6.674-.535-10.036l.04-5.013.022-2.505.011-1.253c.006-.413-.005-.859.111-1.326.068-.258.184-.521.369-.741a1.9 1.9 0 0 1 .638-.472l1.17-.524 1.083-.48.26-.114.12-.053.018-.006.084-.03-.06-.04-.268-.149-.777-.423c-.621-.34-1.19-.65-1.706-.93.966-.55 1.272-.71 1.675-.927l.964-.505c.518-.261.786-.374.806-.34s-.209.214-.69.538l-1.866 1.211.126.056.195.092.728.36 2.16 1.09-2.594 1.217-1.136.536c-.362.177-.55.404-.647.8-.149.697-.07 1.6-.101 2.418l-.022 2.506-.04 5.01c-.004 3.321.24 6.652.532 9.974l.784 8.81c.167 1.955.214 2.932.139 2.94z"/><path fill="#ffc6b2" d="M1008.366 538.619v14.345l-14.838 9.685-1.022-9.38-.117-6.503s-11.88.986-12.432-5.952c-.27-3.416-.023-9.11.094-12.89.024-.81.059-1.584.094-2.3 2.078.633 4.344.633 6.492.258 2.864-.505 5.564-1.644 8.253-2.736 1.69-.68 3.791-1.29 5.165-.105.88.774 1.115 2.03 1.197 3.205.07 1.162.07 2.394.634 3.416.575 1.021 1.82 1.455 2.77.763 0 0 6.586-4.649 9.016 0 .165.317.27.645.364.939v.07h.024c.939 4.168-5.694 7.185-5.694 7.185z"/><path fill="#2a0054" d="M1008.366 538.619s6.633-3.017 5.67-7.185v-.07a5.903 5.903 0 0 0-.364-.94c-2.43-4.648-9.015 0-9.015 0-.951.693-2.196.259-2.77-.762-.564-1.022-.564-2.254-.635-3.416-.082-1.174-.317-2.43-1.197-3.205-1.374-1.186-3.475-.575-5.165.105-2.689 1.092-5.389 2.23-8.253 2.736-2.798.493-5.395.146-8.062-.752-1.124-.378-2.065-1.385-2.934-2.174-1.045-.948-2.026-1.972-2.841-3.126-1.504-2.127-2.42-4.796-1.932-7.355.454-2.374 2.08-4.413 4.084-5.765 2.004-1.353 4.363-2.086 6.731-2.571 4.371-.896 8.992-.99 13.225.421 4.233 1.412 8.033 4.46 9.73 8.587.714 1.738 1.162 3.78 2.725 4.823 1.48.989 3.42.716 5.194.864 3.734.313 7.2 2.837 8.642 6.296 1.443 3.46.8 7.698-1.606 10.572-2.697 3.222-7.363 4.565-11.227 2.917z"/><path fill="#d250dc" d="M943.322 506.725c0 4.49-1.82 8.57-4.77 11.51a16.21 16.21 0 0 1-11.51 4.77h-43.73c-8.99 0-16.28-7.29-16.28-16.28 0-4.49 1.82-8.57 4.77-11.51a16.21 16.21 0 0 1 11.51-4.77h43.73c8.99 0 16.28 7.29 16.28 16.28z"/><path fill="#d250dc" d="m915.008 522.37-9.825 9.981-9.838-9.982z"/><path fill="#fff" d="M885.328 506.453c-.431-.168-1.002-.339-1.702-.506-.52-.12-.935-.234-1.232-.339a1.867 1.867 0 0 1-.68-.402c-.156-.148-.231-.338-.231-.583 0-.38.172-.668.526-.883.39-.236.911-.356 1.549-.356.69 0 1.37.114 2.009.335a.82.82 0 0 0 .303.07c.23 0 .425-.09.569-.258a.82.82 0 0 0 .203-.54c0-.366-.188-.636-.53-.757-.798-.297-1.701-.447-2.685-.447-.747 0-1.4.13-1.941.383-.551.26-.975.616-1.259 1.057a2.695 2.695 0 0 0-.432 1.487c0 .63.181 1.143.536 1.528.34.367.749.645 1.216.827.442.173 1.027.354 1.739.538.525.138.931.257 1.209.353.253.09.47.211.64.363.144.127.21.275.21.466 0 .31 0 1.251-2.035 1.251a6.028 6.028 0 0 1-2.472-.513c-.316-.14-.694-.075-.918.17a.794.794 0 0 0-.216.554c0 .165.05.32.148.462.097.14.22.242.37.304.991.43 2.07.646 3.205.646.693 0 1.315-.116 1.849-.346.546-.235.975-.57 1.28-.991.308-.428.464-.919.464-1.459 0-.652-.172-1.181-.51-1.574a2.993 2.993 0 0 0-1.182-.84zM894.83 502.105a.835.835 0 0 0-.24.598v5.198c0 .47-.107.872-.318 1.195a2.012 2.012 0 0 1-.843.733 2.765 2.765 0 0 1-2.297 0 2.012 2.012 0 0 1-.843-.733c-.21-.323-.318-.726-.318-1.195v-5.198a.849.849 0 0 0-1.448-.598.835.835 0 0 0-.24.598v5.159c0 .822.199 1.53.591 2.106.39.57.899 1.002 1.514 1.281a4.537 4.537 0 0 0 3.785 0 3.626 3.626 0 0 0 1.513-1.28c.394-.576.593-1.285.593-2.107v-5.159a.846.846 0 0 0-1.448-.598zM904.381 506.501a2.5 2.5 0 0 0 .554-.564c.27-.377.406-.85.406-1.405 0-.796-.287-1.44-.853-1.916-.554-.463-1.334-.698-2.322-.698h-3.082a.802.802 0 0 0-.597.253.834.834 0 0 0-.24.597v7.927c0 .23.084.437.243.595a.814.814 0 0 0 .594.243h3.16c1.213 0 2.125-.248 2.709-.738.595-.5.898-1.197.898-2.071 0-.62-.191-1.142-.568-1.554a3.006 3.006 0 0 0-.902-.669zm-4.446-2.973h2.14c.527 0 .941.107 1.23.318.27.196.4.45.4.777 0 .395-.124.691-.38.905-.266.221-.761.334-1.472.334h-1.918v-2.334zm3.839 6.052c-.308.228-.861.343-1.647.343h-2.192v-2.49h2.205c2.062 0 2.062.932 2.062 1.238 0 .398-.14.696-.428.91zM916.779 501.852h-.43a1.04 1.04 0 0 0-.625.205c-.178.13-.312.295-.405.501l-2.732 6.813-2.736-6.82a1.207 1.207 0 0 0-.4-.494 1.04 1.04 0 0 0-.624-.205h-.432c-.305 0-.566.112-.78.331a1.09 1.09 0 0 0-.319.782v7.796c0 .23.084.436.243.595.322.32.865.32 1.192.003a.81.81 0 0 0 .254-.598v-6.133l2.536 6.268c.088.211.231.383.426.511.386.254.894.254 1.281 0 .192-.126.336-.298.427-.514l2.535-6.265v6.133a.81.81 0 0 0 .253.598c.166.159.367.24.597.24s.436-.084.595-.244a.823.823 0 0 0 .243-.594v-7.796c0-.302-.107-.565-.319-.782a1.053 1.053 0 0 0-.78-.33zM920.152 502.105a.835.835 0 0 0-.24.598v8.058c0 .23.084.436.243.595a.814.814 0 0 0 .594.243.843.843 0 0 0 .851-.838v-8.058a.846.846 0 0 0-1.448-.598zM930.414 502.154a.799.799 0 0 0-.576-.236h-6.504a.775.775 0 0 0-.572.24.8.8 0 0 0-.225.571.784.784 0 0 0 .797.8h2.414v7.232c0 .23.084.436.244.595s.365.243.594.243a.841.841 0 0 0 .851-.838v-7.233h2.401a.804.804 0 0 0 .573-.226.778.778 0 0 0 .239-.573.789.789 0 0 0-.236-.575z"/><path fill="#719bff" d="m1035.878 331.801 32.64-51.838-63.17 15.578a.056.056 0 0 0-.03.09l30.47 36.176c.025.03.07.026.09-.006z"/><path fill="#5388f2" d="m1064.857 282.951-40.9 34.801a.055.055 0 0 0-.007.007l-6.45 7.785a.056.056 0 0 1-.1-.031l-1.364-17.124c-.001-.022.01-.043 2.375-1.322l46.446-24.116z"/><path fill="#5388f2" d="m1017.61 325.575 9.722-3.693a.056.056 0 0 0 .022-.088l-3.358-3.987a.056.056 0 0 0-.086 0l-6.363 7.68c-.037.044.009.108.062.088zM250.43 319.194c0 6.66 5.401 12.055 12.062 12.055h46.579c8.862 0 16.044-7.182 16.044-16.044 0-8.855-7.182-16.044-16.044-16.044-.528 0-1.056.026-1.571.077.082-.687.12-1.387.12-2.093 0-10.56-8.562-19.123-19.122-19.123-9.084 0-16.687 6.336-18.633 14.829h-.127c-6.66 0-12.062 5.4-12.062 12.055 0 1.062.134 2.086.395 3.066-4.473 1.762-7.64 6.12-7.64 11.222z"/><path fill="#719bff" d="M323.01 315.207c0 8.86-7.184 16.043-16.043 16.043h-46.578c-6.662 0-12.066-5.394-12.066-12.056 0-5.104 3.17-9.459 7.644-11.223a11.73 11.73 0 0 1-.399-3.066c0-6.651 5.405-12.056 12.066-12.056h.125c1.95-8.492 9.547-14.828 18.634-14.828 10.56 0 19.12 8.565 19.12 19.126a17.5 17.5 0 0 1-.119 2.09 15.826 15.826 0 0 1 1.573-.073c8.86 0 16.043 7.184 16.043 16.043z"/><path d="M295.315 311.684h-4.466a.653.653 0 0 0-.662.662v10.71c0 .744-.606 1.35-1.35 1.35h-2.923a1.342 1.342 0 0 1-1.337-1.35v-10.724a.665.665 0 0 0-.675-.662h-4.466c-1.09 0-1.723-1.24-1.09-2.122l7.927-11.22c.537-.759 1.668-.759 2.191 0l7.954 11.233c.634.882-.014 2.123-1.103 2.123z" opacity=".15"/><path fill="#fff" d="M293.6 310.946h-4.466a.653.653 0 0 0-.661.662v10.71c0 .744-.607 1.35-1.351 1.35H284.2a1.342 1.342 0 0 1-1.338-1.35v-10.724a.665.665 0 0 0-.675-.662h-4.466c-1.09 0-1.723-1.24-1.09-2.122l7.927-11.22c.538-.759 1.668-.759 2.192 0l7.953 11.233c.634.882-.014 2.123-1.103 2.123z"/><circle cx="904.202" cy="381.352" r="28.165" fill="#ff784b"/><path fill="#fff" d="M886.655 373.148v16.409c0 2.373 1.938 4.31 4.33 4.31h26.433c2.392 0 4.33-1.937 4.33-4.31v-16.41c0-2.372-1.938-4.31-4.33-4.31h-26.433c-2.392 0-4.33 1.938-4.33 4.31z"/><path fill="#ff784b" d="M904.192 384.126a.717.717 0 0 0 .468-.174l13.167-11.328a.718.718 0 0 0-.937-1.088l-12.698 10.925-12.68-10.905a.718.718 0 0 0-.936 1.088l13.147 11.308a.717.717 0 0 0 .469.174z"/><path fill="#ff784b" d="M891.044 390.077a.72.72 0 0 0 .47-.174l10.023-8.639a.719.719 0 0 0-.938-1.088l-10.024 8.64a.719.719 0 0 0 .47 1.261zM917.358 390.038a.718.718 0 0 0 .468-1.262l-10.022-8.62a.718.718 0 0 0-.937 1.088l10.023 8.62a.714.714 0 0 0 .468.174z"/><circle cx="548.206" cy="203.929" r="26.683" fill="#ffc837"/><path fill="#fff" d="M565.324 200.791a1.623 1.623 0 0 0-1.343-1.525l-1.492-.274c-.515-.1-.968-.427-1.184-.909-.066-.168-.155-.342-.24-.504a1.631 1.631 0 0 1 .053-1.513l.744-1.305a1.638 1.638 0 0 0-.322-2.01l-3.446-3.14a1.628 1.628 0 0 0-2.027-.134l-1.239.856c-.434.297-.993.38-1.486.192-.175-.062-.357-.136-.539-.198a1.625 1.625 0 0 1-1.029-1.096l-.396-1.45a1.64 1.64 0 0 0-1.654-1.194l-4.655.219a1.618 1.618 0 0 0-1.52 1.33l-.274 1.498c-.099.521-.438.968-.92 1.184-.18.078-.348.156-.522.24-.47.233-1.031.205-1.495-.052l-1.305-.738a1.648 1.648 0 0 0-2.01.321l-3.14 3.446a1.627 1.627 0 0 0-.134 2.027l.861 1.245c.303.428.38.988.193 1.48-.068.176-.142.364-.204.545-.157.504-.579.877-1.09 1.023l-1.444.396a1.631 1.631 0 0 0-1.194 1.655l.218 4.655c.032.758.588 1.4 1.343 1.53l1.474.263c.52.1.974.427 1.184.92.078.169.162.343.251.523.234.47.205 1.03-.064 1.495l-.737 1.304a1.647 1.647 0 0 0 .321 2.01l3.452 3.14c.56.513 1.401.568 2.032.134l1.24-.855c.434-.297.993-.38 1.48-.193.181.074.357.136.545.198.51.17.877.591 1.023 1.097l.396 1.449c.195.733.89 1.227 1.648 1.195l4.662-.219a1.62 1.62 0 0 0 1.525-1.343l.274-1.486c.099-.515.426-.968.908-1.178.18-.083.354-.162.523-.245a1.558 1.558 0 0 1 1.5.052l1.305.738c.67.371 1.503.233 2.01-.322l3.14-3.451a1.637 1.637 0 0 0 .14-2.033l-.867-1.25a1.573 1.573 0 0 1-.187-1.47c.068-.18.13-.357.18-.527.17-.51.591-.876 1.103-1.023l1.455-.408a1.64 1.64 0 0 0 1.194-1.642l-.218-4.673zm-17.035 10.155a7.019 7.019 0 0 1-.165-14.035 7.022 7.022 0 0 1 7.1 6.935 7.022 7.022 0 0 1-6.935 7.1z"/><path fill="#d7e7ff" d="M548.114 196.146c-4.3.05-7.742 3.574-7.691 7.875s3.575 7.742 7.875 7.691c4.3-.05 7.742-3.575 7.691-7.875s-3.574-7.742-7.875-7.691zm.175 14.8a7.019 7.019 0 0 1-.166-14.035 7.022 7.022 0 0 1 7.1 6.935 7.022 7.022 0 0 1-6.934 7.1z"/></svg>