<svg xmlns="http://www.w3.org/2000/svg" enable-background="new 0 0 5100 5000" viewBox="0 0 5100 5000"><path fill="#c39af5" d="M4397.936,2437.852c-1.594,781.148-472.515,1451.571-1166.732,1737.616
				C2022.863,4680.689,636.402,3770.145,644.958,2437.838C721.25-41.812,4321.402-42.602,4397.936,2437.852z"/><path fill="#f7bead" d="M3711.135,3890.037c-683.106,618.018-1692.896,607.563-2382.474-2.784
					C1995.248,3501.656,3021.16,3540.543,3711.135,3890.037z"/><path fill="#ededed" d="M3308.399,3911.478c-0.863,89.093-36.531,184.723-77.197,263.989
							c-36.703,15.162-74.094,29.12-112.004,41.867c-28.604,9.651-57.552,18.442-86.847,26.714
							c-87.534,24.811-177.655,43.246-270.014,55.135c-108.558,3.104-190.924-16.196-190.924-16.196s-52.555,23.954-115.967,30.154
							c-11.889,1.212-24.123,1.725-36.53,1.379c-12.234-0.345-24.125-2.237-36.013-5.166
							c-64.79-15.17-124.927-58.593-175.071-39.116c-8.615,3.273-18.611,7.75-29.637,12.924
							c-41.01-7.581-81.333-16.373-121.31-26.714c-18.609-4.652-37.047-9.65-55.312-14.993
							c-40.494-11.368-79.954-24.29-119.07-38.594c-24.641-52.561-45.662-119.761-55.484-204.706
							c-18.094-153.88,8.099-291.208,23.262-354.109c0.346-0.859,0.517-1.717,0.689-2.583c21.368-4.821,43.251-9.305,65.997-13.613
							c0.172-0.168,0.344-0.168,0.689-0.168c5.514-1.211,11.2-2.247,16.887-3.273c17.577-3.281,35.496-6.378,54.107-9.306
							c16.198-2.592,32.74-4.998,49.798-7.412c0.172,0.689,0.345,1.548,0.517,2.238c18.954,78.408,130.957,352.04,532.448,644.628
							c0,0,356.172-62.725,543.132-622.222c0.345-0.866,0.518-1.724,0.862-2.592c22.401,4.139,44.457,8.617,66.169,13.278
							c6.202,1.203,12.405,2.583,18.609,3.954c13.786,2.937,27.571,6.033,41.355,9.306c13.615,3.104,27.054,6.554,40.494,9.827
							c0.69,1.035,1.207,2.07,1.723,3.273C3299.438,3699.534,3309.949,3765.187,3308.399,3911.478z"/><path fill="#fff" d="M2571.413,4254.556c0,0-137.505,14.994-316.711-75.472
								c-47.904-24.298-145.951,39.285-197.817,77.365c-18.609-4.652-37.047-9.65-55.312-14.993
								c-49.972-98.727-165.25-358.922-85.468-611.191c0.172-0.858,0.517-1.548,0.861-2.415
								c4.825-15.507,10.511-30.845,16.885-46.007c42.39-76.851,255.714-110.279,255.714-110.279l-0.861,31.359
								c0,0,0,2.246-0.173,6.032l-1.896,61.345l-12.062,1.203l-121.653,12.755c0,0,2.24,8.094,7.237,22.919
								c0.172,0,0.172,0.514,0.172,0.514C2089.797,3691.955,2213.691,3989.54,2571.413,4254.556z"/><path fill="#fff" d="M3119.198,4217.333c-28.604,9.651-57.552,18.442-86.847,26.714
								c-59.619-37.913-150.429-86.68-193.507-64.964c-179.205,90.466-267.431,75.472-267.431,75.472
								c415.965-308.271,464.903-626.875,466.281-635.667c0-0.168-0.862-0.168-2.239-0.345
								c-0.864-0.168-105.801-10.854-105.801-10.854c-0.345-0.859-0.69-1.724-0.862-2.583c-0.173-0.521-0.173-1.035-0.345-1.724
								c-2.757-10.855-9.65-39.117-14.475-62.035c-0.171-0.857-0.344-1.716-0.516-2.583c-1.207-5.855-2.068-11.375-2.758-16.028
								c-0.861-6.024-1.723-11.198-2.239-14.817c-0.173-1.548-0.345-2.927-0.518-4.308c-0.173-1.034-0.173-1.548-0.173-1.548
								c-1.55-11.721-2.756-21.371-3.273-26.537c-0.173-1.38-0.344-2.583-0.517-3.963c0,0,213.325,33.428,255.712,110.279
								c8.616,20.336,15.854,40.84,21.885,61.177c0.172,1.026,0.516,1.893,0.688,2.75
								C3248.95,3874.599,3167.101,4107.223,3119.198,4217.333z"/><path fill="#ededed" d="M2907.831,3502.09c0,0,127.715,29.21,137.522,35.556c0,0-0.384,47.626-7.691,81.144
								c0,0-107.585-9.193-108.145-11.067c-8.302-27.738-15.162-62.893-18.815-84.904
								C2908.723,3510.887,2907.831,3502.09,2907.831,3502.09z"/><path fill="#ededed" d="M2060.361,3607.722c0,0-15.651-41.585-17.572-49.287
								c-2.596-10.406,145.859-55.547,145.859-55.547s-1.07,91.962-5.108,106.287
								C2183.54,3609.175,2070.215,3606.52,2060.361,3607.722z"/><path fill="#f26161" d="M3478.902,3650.981v286.911H1613.548l4.991-170.936l3.378-115.976c0,0,0.091-2.039,0.548-5.721
						c2.678-22.185,18.533-104.321,108.368-161.837c104.716-67.011,322.517-96.317,389.559-129.854
						c67.011-33.505,187.095-62.811,430.033-62.811c242.938,0,363.022,29.305,430.033,62.811
						c67.011,33.536,284.843,62.843,389.559,129.854c49.421,31.679,76.475,70.784,91.204,103.225
						C3477.745,3622.983,3478.902,3650.981,3478.902,3650.981z"/><path fill="#db5252" d="M3492.989,3743.879l-14.086,35.159c-451.323,1.911-1416.351-0.615-1860.363-12.082
						l3.378-115.976c0,0,0.091-2.039,0.548-5.721c34.175,20.572,178.321-56.485,234.64-78.562
						c169.066-66.274,348.848-64.691,363.834-165.016l534.696,41.936c0,0,113.181-8.105,243.004,56.806
						c162.462,73.434,348.639,130.822,456.424,73.706C3483.958,3615.813,3492.989,3743.879,3492.989,3743.879z"/><path fill="#8c4949" d="M2208.672,3163.47c0,0,0,396.514-71.593,567.235
							c-71.592,170.722,236.807,297.385,424.05,291.878c187.242-5.507,445.642-121.539,402.021-269.85
							c-55.072-187.242-71.593-297.385-82.608-589.263C2867.625,2821.163,2269.25,2766.957,2208.672,3163.47z"/><path fill="#7d3f3f" d="M2894.454,3402.401c-6.026-66.065-10.276-142.557-13.912-238.93
							c-12.917-342.307-611.292-396.514-671.869,0c0,0-0.007,103.909-9.608,228.236
							c110.198,130.479,232.387,190.306,334.528,190.306C2660.216,3582.013,2785.524,3516.617,2894.454,3402.401z"/><path fill="#8c4949" d="M2547.361,1481.04c0,0-684.557-38.593-652.596,773.752
									c33.043,839.839,393.698,1184.035,638.828,1184.035c319.414,0,630.567-415.79,691.146-983.024
									C3285.317,1888.568,3020.975,1475.533,2547.361,1481.04z"/><path fill="#723333" d="M2551.524,2822.887c-37.807-0.807-90.576-7.625-109.294-37.595
										c-7.069-11.324-12.358-30.315,2.624-56.478c58.896-102.884,92.058-268.177,92.39-269.832
										c2.258-11.438,13.366-18.882,24.812-16.617c11.437,2.261,18.883,13.369,16.616,24.806
										c-1.387,7.042-34.793,173.675-97.168,282.623c-1.302,2.283-5.41,9.972-3.448,13.121
										c8.425,13.509,61.748,19.857,104.384,17.099c11.64-0.714,21.685,8.061,22.442,19.698
										c0.759,11.634-8.052,21.682-19.686,22.448C2577.816,2822.644,2565.725,2823.19,2551.524,2822.887z"/><path fill="#121d3f" d="M2648.499,2244.222c0,0-17.867,36.65,21.458,54.043
											c39.323,17.392,223.618-5.706,310.3-9.039c86.683-3.33,73.208-52.4-29.398-61.032
											C2861.705,2220.693,2651.055,2214.747,2648.499,2244.222z"/><path fill="#121d3f" d="M2474.215,2244.222c0,0,17.867,36.65-21.457,54.043
											c-39.325,17.392-223.618-5.706-310.301-9.039c-86.682-3.33-73.208-52.4,29.399-61.032
											C2261.008,2220.693,2471.658,2214.747,2474.215,2244.222z"/><path fill="#7d3f3f" d="M2669.295,2685.343c0,0,0.735-82.432,154.618-90.493
											c153.883-8.062,226.785,31.179,222.531,90.493S2674.454,2802.593,2669.295,2685.343z"/><path fill="#7d3f3f" d="M2405.109,2699.136c0,0-4.928-82.287-159.022-82.509
											c-154.095-0.22-224.904,42.68-217.637,101.701C2035.716,2777.348,2405.924,2816.495,2405.109,2699.136z"/><path fill="#7d3f3f" d="M2600.916,3160.518c-1.811,0-3.654-0.325-5.45-1.013
												c-43.853-16.875-97.59,0.104-98.136,0.278c-7.946,2.583-16.545-1.811-19.125-9.798
												c-2.575-7.982,1.811-16.546,9.799-19.124c2.612-0.845,64.589-20.411,118.373,0.278
												c7.831,3.013,11.74,11.805,8.727,19.637C2612.779,3156.813,2607.022,3160.518,2600.916,3160.518z"/><path fill="#fff" d="M2317.377,2930.803c-9.892,0-16.396,10.288-12.171,19.233
											c20.588,43.593,86.698,146.155,252.994,146.155c165.267,0,240.367-101.297,265.208-145.339
											c5.059-8.968-1.453-20.05-11.749-20.05L2317.377,2930.803z"/><path fill="#121d3f" d="M2895.316,2489.023c-3.104,0-6.218-1.062-8.767-3.234
											c-84.534-72.055-153.29-3.792-156.185-0.851c-5.225,5.328-13.79,5.422-19.115,0.227
											c-5.334-5.206-5.478-13.732-0.286-19.087c0.883-0.908,89.034-89.627,193.137-0.882c5.688,4.847,6.37,13.388,1.523,19.074
											C2902.948,2487.41,2899.144,2489.023,2895.316,2489.023z"/><path fill="#121d3f" d="M2216.577,2489.023c-3.829,0-7.631-1.614-10.307-4.753
											c-4.846-5.686-4.165-14.227,1.523-19.074c104.095-88.735,192.262-0.025,193.146,0.882
											c5.2,5.366,5.064,13.931-0.304,19.132c-5.359,5.193-13.917,5.065-19.115-0.287c-3.088-3.143-71.77-71.071-156.177,0.867
											C2222.795,2487.961,2219.682,2489.023,2216.577,2489.023z"/><g><path fill="#121d3f" d="M1867.836,1844.62c0,0,64.924-425.405,462.394-526.694
										c397.47-101.29,830.204,68.439,887.091,495.091c0,0-210.695,63.749-447.782,42.792
										c-237.087-20.956-536.933-17.464-655.476,0C1995.518,1873.273,1867.836,1844.62,1867.836,1844.62z"/><path fill="#121d3f" d="M1867.836,1844.62c0,0-53.727,218.067-9.481,606.794l79.244,120.031
										c0,0-21.419-536.381,37.69-742.627L1867.836,1844.62z"/><path fill="#121d3f" d="M3217.32,1813.017c0,0,71.015,249.67,26.77,638.397l-69.511,111.999
										c0,0-14.146-573.415-58.391-737.755L3217.32,1813.017z"/><path fill="#121d3f" d="M2776.407,1358.691c0,0-16.925-182.171,67.192-190.23
										c84.118-8.059,50.755,165.015,27.483,217.134C2844.232,1445.725,2784.243,1453.435,2776.407,1358.691z"/><path fill="#121d3f" d="M2652.969,1324c0,0-16.926-182.171,67.192-190.23
										c84.118-8.059,50.755,165.015,27.483,217.133C2720.794,1411.033,2660.805,1418.743,2652.969,1324z"/><path fill="#121d3f" d="M2134.301,1506.646c0,0-63.948-29.059-129.126-81.562
										c-65.177-52.503-142.878-39.46-168.946-8.459c-26.068,31-7.017,152.708,141.574,202.679
										C2126.396,1669.275,2204.896,1572.968,2134.301,1506.646z"/><path fill="#121d3f" d="M2199.976,1417.692c0,0-117.787-133.882-63.238-185.666
										c54.55-51.784,169.923,71.881,192.527,153.906C2351.868,1467.958,2303.625,1523.64,2199.976,1417.692z"/><path fill="#121d3f" d="M2495.849,1313.441c0,0-30.578-175.678,42.98-191.372
										c73.559-15.694,107.413,150.011,83.875,231.773C2599.165,1435.604,2528.95,1457.914,2495.849,1313.441z"/><path fill="#121d3f" d="M2078.927,1480.555c0,0-117.787-133.881-63.237-185.666
										c54.549-51.784,169.923,71.881,192.526,153.907C2230.82,1530.822,2182.577,1586.504,2078.927,1480.555z"/><path fill="#121d3f" d="M3164.993,1677.428c0,0,123.619-5.599,183.675,29.778
										c60.055,35.377,57.435,101.811,0.133,110.014c-57.302,8.203-138.94-9.106-212.792-39.052
										C3062.157,1748.222,3090.297,1694.074,3164.993,1677.428z"/><path fill="#121d3f" d="M3078.692,1526.365c0,0,132.59-31.463,194.674-55.906
										c62.083-24.442,120.066,34.083,81.727,90.652c-38.34,56.568-150.827,86.498-237.839,92.041
										C3030.242,1658.696,2971.326,1573.42,3078.692,1526.365z"/><path fill="#25305b" d="M2138.5,1686.079c0,0-177.444,160.784-121.237,239.151
										c56.206,78.367,219.857-126.546,248.838-177.725C2305.625,1677.708,2245.525,1605.659,2138.5,1686.079z"/><path fill="#212851" d="M2774.165,1805.773c0,0,52.446,194.7,113.345,183.485
										c60.899-11.215,32.423-153.899,21.657-204.732C2890.458,1696.182,2739.157,1639.302,2774.165,1805.773z"/><path fill="#212851" d="M2576.548,1411.405c0,0-52.447-194.699,17.127-228.471
										c69.574-33.772,119.267,117.347,107.084,216.258C2688.576,1498.104,2597.967,1506.658,2576.548,1411.405z"/><path fill="#121d3f" d="M1889.204,1644.25c0,0-272.507-41.065-274.195,52.119
										c-1.688,93.185,309.751,71.067,360.703,22.294C2026.664,1669.891,1889.204,1644.25,1889.204,1644.25z"/><path fill="#212851" d="M2789.043,1628.755c48.751-1.581,71.736-61.019,36.466-94.712
										c-15.427-14.736-38.172-29.019-71.6-37.762c-93.385-24.422-144.326,22.586-133.882,63.495
										C2627.114,1587.537,2720.696,1630.973,2789.043,1628.755z"/><path fill="#212851" d="M2748.927,1281.664c0,0-88.655,135.399-28.6,170.776
										c60.055,35.378,109.691-59.808,116.589-112.897C2847.618,1257.166,2794.757,1215.766,2748.927,1281.664z"/><path fill="#121d3f" d="M2407.567,1407.521c0,0-59.93-54.134-82.071-121.137
										c-22.141-67.004,17.652-124.217,49.284-134.135c53.869-16.891,133.075,59.796,137.659,177.04
										S2464.443,1460.365,2407.567,1407.521z"/><path fill="#121d3f" d="M3035.479,1473.167c0,0,93.252-157.407,166.078-114.545
										c72.826,42.861-55.794,163.38-105.232,191.907C3039.287,1583.442,2986.199,1554.464,3035.479,1473.167z"/><path fill="#121d3f" d="M2963.397,1409.591c0,0,43.045-177.82,125.233-158.175
										c82.188,19.645-5.481,172.557-44.392,214.316C2999.344,1513.912,2940.096,1501.758,2963.397,1409.591z"/><path fill="#212851" d="M2336.813,1673.281c0,0-8.705,245.893,67.811,246.077
										c76.516,0.184,77.706-128.816,78.368-206.321C2484.043,1589.794,2345.059,1544.017,2336.813,1673.281z"/><path fill="#212851" d="M2918.224,1653.371c0,0,238.724,21.498,248.712-79.101
										c9.987-100.6-165.015-54.409-224.246-35.129C2883.46,1558.421,2831.684,1643.642,2918.224,1653.371z"/><path fill="#212851" d="M2975.826,1820.495c0,0,189.817,146.997,254.61,129.464
										c64.792-17.533,51.397-130.118-86.049-191.041C2974.76,1683.729,2886.609,1739.172,2975.826,1820.495z"/><path fill="#212851" d="M2853.891,1389.569c0,0,9.934-222.449,92.756-218.367
										c82.823,4.082,46.436,187.495,20.412,255.166C2941.036,1494.039,2842.048,1521.844,2853.891,1389.569z"/><path fill="#212851" d="M2414.544,1459.311c0,0-33.021-80.214-43.186-146.563
										c-10.166-66.348-59.392-107.285-104.262-78.657c-44.871,28.628-38.07,157.451,37.146,252.188
										C2379.457,1581.017,2444.66,1541.133,2414.544,1459.311z"/><path fill="#212851" d="M2548.421,1725.561c0,0,11.309,171.016,86.937,181.12
										c75.628,10.105,89.814-74.263,76.339-146.502C2691.462,1651.699,2534.359,1510.964,2548.421,1725.561z"/><path fill="#212851" d="M2107.79,1524.47c0,0-133.907-65.323-127.394-138.075
										c6.514-72.752,125.396-25.44,214.909,52.575C2284.819,1516.986,2203.565,1569.713,2107.79,1524.47z"/><path fill="#212851" d="M2436.243,1374.444c0,0,6.049,161.729,75.5,155.828
										c69.451-5.9,54.849-112.253,29.753-159.541C2502.554,1297.355,2435.486,1294.18,2436.243,1374.444z"/><path fill="#212851" d="M2052.518,1547.388c0,0-95.005-17.063-173.859-39.102
										c-78.854-22.039-136.196,3.798-135.139,47.074c1.057,43.276,135.451,153.123,243.259,132.18
										C2094.586,1666.597,2117.847,1567.461,2052.518,1547.388z"/><path fill="#25305b" d="M1916.825,1690.126c0,0-157.966,83.862-132.521,154.641
										c25.444,70.78,114.284,45.337,160.083,9.82C2026.692,1790.761,2108.049,1612.291,1916.825,1690.126z"/></g><g><path fill="#8c4949" d="M1949.602,2513.249c-6.492-35.923-32.494-65.711-67.66-75.51
								c-22.73-6.333-49.329-4.653-75.291,18.064c-66.086,57.825,74.346,396.514,198.257,363.471L1949.602,2513.249z"/><path fill="#8c4949" d="M3167.216,2513.211c6.492-35.923,38.622-65.673,73.788-75.472
								c22.729-6.333,49.329-4.653,75.292,18.064c66.085,57.825-74.346,396.514-198.257,363.471L3167.216,2513.211z"/></g><g><path fill="#8c4949" d="M3231.204,4175.464c192.218-79.206,367.219-187.973,519.976-320.303
						c-254.884-133.429-656.428-247.893-1123.97-254.434c-723.375-10.125-1042.457,135.896-1311.58,270.711
						C1827.477,4298.363,2557.013,4457.349,3231.204,4175.464z"/><path fill="#f26161" d="M3231.204,4175.464c195.558-80.574,373.386-191.658,528.006-327.132
							c-152.958-83.11-362.492-156.889-617.201-195.478c-124.282,350.407-594.383,521.714-594.383,521.714
							c-448.892-203.338-577.983-480.472-596.51-525.619c-313.196,34.718-476.88,135.035-636.643,221.542
							C1826.379,4298.143,2556.508,4457.568,3231.204,4175.464z"/><path fill="#db5252" d="M2497.609,4370.177c-0.787,0-1.588-0.104-2.384-0.325
								c-110.071-30.443-216.844-77.027-317.351-138.456c-80.365-49.116-156.924-107.783-227.554-174.367
								c-120.318-113.427-182.695-212.118-183.311-213.102c-2.615-4.175-1.349-9.678,2.824-12.294
								c4.174-2.616,9.678-1.348,12.296,2.823c0.606,0.969,62.047,98.081,180.856,209.994
								c109.486,103.129,291.524,240.315,536.995,308.205c4.748,1.313,7.534,6.229,6.22,10.977
								C2505.108,4367.585,2501.519,4370.177,2497.609,4370.177z"/><path fill="#db5252" d="M2610.166,4370.177c-3.911,0-7.5-2.592-8.594-6.545c-1.313-4.748,1.472-9.664,6.22-10.977
								c245.705-67.954,427.869-205.331,537.422-308.608c118.671-111.874,179.825-208.624,180.43-209.589
								c2.616-4.175,8.119-5.443,12.295-2.825c4.175,2.614,5.44,8.119,2.825,12.294c-0.615,0.984-62.992,99.675-183.31,213.102
								c-70.63,66.583-147.191,125.25-227.555,174.367c-100.507,61.429-207.28,108.012-317.35,138.456
								C2611.754,4370.073,2610.952,4370.177,2610.166,4370.177z"/></g><g><path fill="#e6eded" d="M2529.066,4435.271c-26.031,0-51.983-0.528-78.023-1.589
			c-162.699-5.214-325.151-30.892-482.861-76.321c-273.4-78.126-532.595-218.41-749.52-405.702c-1.569-1.263-3.309-2.72-5.163-4.375
			c-326.481-282.59-547.46-646.833-639.133-1053.501c-85.312-378.425-57.258-775.772,81.121-1149.087
			c138.247-372.951,375.64-691.851,686.524-922.223c335.35-248.506,743.079-380.505,1179.12-381.722
			c533.741-0.004,1035.246,207.736,1412.464,584.959c377.219,377.219,584.959,878.729,584.959,1412.143
			c0,571.018-245.162,1115.748-672.676,1494.787c-1.796,1.645-3.645,3.258-5.55,4.833
			C3481.559,4256.178,3007.693,4435.247,2529.066,4435.271z M1370.643,3764.245l3.749,3.155
			c190.978,165.391,419.313,289.21,660.322,358.076c138.911,40.016,281.671,62.571,424.562,67.103l1.132,0.042
			c444.17,18.266,889.43-141.132,1221.782-437.352l4.676-4.056c375.271-333.242,590.452-811.78,590.452-1313.361
			c0-468.976-182.652-909.907-514.305-1241.56c-331.654-331.659-772.576-514.31-1241.548-514.306
			c-896.494,2.508-1434.931,593.918-1639.78,1146.555C676.509,2382.051,697.335,3180.956,1370.643,3764.245z"/><circle cx="3975.86" cy="3961.158" r="477.472" fill="#73e09e" transform="rotate(-45.001 3975.833 3961.223)"/><path fill="#e6eded" d="M3975.859,4559.25c-329.791,0-598.09-268.299-598.09-598.091
				c0-329.791,268.299-598.09,598.09-598.09s598.09,268.299,598.09,598.09C4573.949,4290.951,4305.65,4559.25,3975.859,4559.25z
				 M3975.859,3604.305c-196.769,0-356.855,160.086-356.855,356.854c0,196.769,160.086,356.855,356.855,356.855
				c196.768,0,356.854-160.086,356.854-356.855C4332.713,3764.391,4172.627,3604.305,3975.859,3604.305z"/></g></svg>